<?xml version="1.0" encoding="utf-8"?>
<!-- Generator: Adobe Illustrator 16.0.0, SVG Export Plug-In . SVG Version: 6.00 Build 0)  -->
<!DOCTYPE svg PUBLIC "-//W3C//DTD SVG 1.1//EN" "http://www.w3.org/Graphics/SVG/1.1/DTD/svg11.dtd">
<svg version="1.1" xmlns="http://www.w3.org/2000/svg" xmlns:xlink="http://www.w3.org/1999/xlink" x="0px" y="0px"
	 width="450.899px" height="450.877px" viewBox="0 0 450.899 450.877" enable-background="new 0 0 450.899 450.877"
	 xml:space="preserve">
<g id="Layer_3">
	<!-- <circle fill="#FFFFFF" cx="211.361" cy="211.345" r="210"/> -->
</g>
<g id="Layer_4">
	<g id="Right_gear_copy_2">
		<path fill="#858585" d="M193.465,218.673c-1.815-0.583-3.702-1.17-5.668-1.758c-0.018-0.007-0.026-0.006-0.045-0.015
			c-24.765-8.891-43.379-31.526-45.802-59.466c-0.631-7.272-0.113-14.378,1.394-21.144c-9.362,27.491-19.681,37.489-49.85,47.674
			c-0.009,0-0.018,0.008-0.027,0.007c-2.336,0.786-4.805,1.586-7.399,2.385c-0.008,0-0.018,0.009-0.026,0.007
			c-23.995,9.268-41.899,31.541-44.272,58.894c-3.319,38.266,25.016,71.971,63.281,75.29c31.023,2.691,59.059-15.421,70.317-42.771
			c0.001-0.018,0.01-0.026,0.012-0.043c1.095-3.577,2.171-6.917,3.261-10.033c0-0.009,0.011-0.025,0.012-0.034
			c7.914-22.845,16.018-33.84,32.716-42.025C206.278,223.141,200.397,220.902,193.465,218.673z M154.149,254.12
			c-2.061,23.761-22.991,41.353-46.745,39.292c-23.762-2.061-41.352-22.992-39.292-46.754c2.061-23.753,22.991-41.343,46.753-39.283
			C138.619,209.435,156.208,230.366,154.149,254.12z"/>
	</g>
	<g id="Right_gear">
		<path id="Figure_1_" fill="#D0245E" d="M336.68,186.353c-0.008,0.001-0.018-0.007-0.026-0.007
			c-2.594-0.799-5.063-1.599-7.399-2.385c-0.009,0.002-0.018-0.007-0.027-0.007c-31.254-10.551-41.205-20.896-50.858-50.706
			c-0.001-0.008-0.01-0.017-0.012-0.036c-0.542-1.664-1.081-3.399-1.625-5.196c-10.366-29.069-39.324-48.663-71.512-45.871
			c-38.266,3.318-66.59,37.022-63.271,75.289c2.423,27.94,21.038,50.575,45.802,59.466c0.019,0.008,0.027,0.008,0.045,0.015
			c1.966,0.588,3.853,1.175,5.668,1.758c29.648,9.537,40.279,19.177,50.604,48.982c0.001,0.008,0.011,0.024,0.012,0.034
			c1.09,3.116,2.167,6.456,3.261,10.033c0.002,0.017,0.011,0.026,0.012,0.043c11.259,27.35,39.294,45.461,70.317,42.771
			c38.266-3.319,66.6-37.024,63.281-75.29C378.58,217.894,360.675,195.621,336.68,186.353z M168.217,155.155
			c-2.06-23.753,15.529-44.684,39.283-46.743c23.762-2.062,44.693,15.528,46.752,39.282c2.061,23.761-15.529,44.692-39.291,46.753
			C191.208,196.508,170.277,178.917,168.217,155.155z M315.317,293.403c-23.753,2.061-44.684-15.531-46.745-39.292
			c-2.06-23.754,15.53-44.685,39.283-46.745c23.762-2.061,44.692,15.529,46.753,39.283
			C356.669,270.411,339.08,291.341,315.317,293.403z"/>
	</g>
</g>
</svg>
