<?xml version="1.0" encoding="UTF-8" standalone="no"?>
<!-- Created using Karbon, part of Calligra: http://www.calligra.org/karbon -->

<svg
   xmlns:dc="http://purl.org/dc/elements/1.1/"
   xmlns:cc="http://creativecommons.org/ns#"
   xmlns:rdf="http://www.w3.org/1999/02/22-rdf-syntax-ns#"
   xmlns:svg="http://www.w3.org/2000/svg"
   xmlns="http://www.w3.org/2000/svg"
   xmlns:xlink="http://www.w3.org/1999/xlink"
   xmlns:sodipodi="http://sodipodi.sourceforge.net/DTD/sodipodi-0.dtd"
   xmlns:inkscape="http://www.inkscape.org/namespaces/inkscape"
   width="102.4pt"
   height="102.4pt"
   id="svg2"
   version="1.1"
   inkscape:version="0.48.3.1 r9886"
   sodipodi:docname="fcitx-anthy-period.svg">
  <metadata
     id="metadata20">
    <rdf:RDF>
      <cc:Work
         rdf:about="">
        <dc:format>image/svg+xml</dc:format>
        <dc:type
           rdf:resource="http://purl.org/dc/dcmitype/StillImage" />
      </cc:Work>
    </rdf:RDF>
  </metadata>
  <sodipodi:namedview
     pagecolor="#ffffff"
     bordercolor="#666666"
     borderopacity="1"
     objecttolerance="10"
     gridtolerance="10"
     guidetolerance="10"
     inkscape:pageopacity="0"
     inkscape:pageshadow="2"
     inkscape:window-width="1366"
     inkscape:window-height="721"
     id="namedview18"
     showgrid="false"
     inkscape:zoom="1.84375"
     inkscape:cx="64"
     inkscape:cy="64"
     inkscape:window-x="0"
     inkscape:window-y="-3"
     inkscape:window-maximized="1"
     inkscape:current-layer="svg2" />
  <defs
     id="defs4">
    <linearGradient
       id="gradient0"
       gradientTransform="scale(0.99986074,1.0001393)"
       gradientUnits="userSpaceOnUse"
       x1="17.21143"
       y1="53.49538"
       x2="51.810705"
       y2="53.49538"
       spreadMethod="pad">
      <stop
         stop-color="#ffffff"
         offset="0.00000000000"
         stop-opacity="1.00000000000"
         id="stop7" />
      <stop
         stop-color="#ffffff"
         offset="0.81999999285"
         stop-opacity="0.71372549020"
         id="stop9" />
      <stop
         stop-color="#ffffff"
         offset="1.00000000000"
         stop-opacity="1.00000000000"
         id="stop11" />
    </linearGradient>
    <linearGradient
       inkscape:collect="always"
       xlink:href="#gradient0"
       id="linearGradient3000"
       gradientUnits="userSpaceOnUse"
       gradientTransform="matrix(0.99986074,0,0,1.0001393,70.5154,36.2106)"
       spreadMethod="pad"
       x1="17.21143"
       y1="53.49538"
       x2="51.810705"
       y2="53.49538" />
  </defs>
  <path
     style="opacity:0.4;fill:none;stroke:#000000;stroke-width:5;stroke-linecap:butt;stroke-linejoin:miter;stroke-miterlimit:4"
     inkscape:connector-curvature="0"
     d="m 107.8087,53.5 c 0,11.0457 -8.9543,20 -20,20 -11.04569,0 -20,-8.9543 -20,-20 0,-11.04569 8.95431,-20 20,-20 11.0457,0 20,8.95431 20,20 z"
     stroke-miterlimit="4.00000000000"
     id="path4715" />
  <path
     inkscape:connector-curvature="0"
     style="opacity:0.7;fill:url(#linearGradient3000)"
     d="m 84.275,70.5135 c -3.7086,-0.8497 -6.50711,-2.4781 -9.18266,-5.343 -3.03745,-3.2525 -4.569631,-7.144 -4.576916,-11.6247 -0.0109,-6.705 3.748486,-12.7509 9.725966,-15.64148 4.69231,-2.269116 10.53941,-2.257458 15.17411,0.03025 5.952,2.93787 9.7028,8.93203 9.6895,15.48493 -0.01,4.9044 -1.5741,8.6819 -5.0377,12.1659 -2.3958,2.4099 -3.9597,3.4018 -6.9534,4.4101 -2.4716,0.8325 -6.4489,1.0655 -8.8389,0.518 z"
     id="path5285" />
  <g
     style="opacity:0.4;fill:none"
     transform="matrix(1.1936236,0,0,1.1936236,0.60308846,24.104017)"
     id="flowRoot3322">
    <path
       style="fill:#000000"
       inkscape:connector-curvature="0"
       d="M 9.58984,6.64062 8.222701,8.2443236 C 6.022171,5.8484836 5.1259838,5.4080434 2.4957838,3.2335634 l 1.419236,-1.7143907"
       transform="scale(4.99826,4.99826)"
       id="path3345"
       sodipodi:nodetypes="cccc" />
  </g>
</svg>
