<?xml version="1.0" standalone="no"?>
<!DOCTYPE svg PUBLIC "-//W3C//DTD SVG 20010904//EN" "http://www.w3.org/TR/2001/REC-SVG-20010904/DTD/svg10.dtd">
<!-- Created using Karbon, part of Calligra: http://www.calligra.org/karbon -->
<svg xmlns="http://www.w3.org/2000/svg" xmlns:xlink="http://www.w3.org/1999/xlink" width="102.4pt" height="102.4pt">
<defs/>
<g id="layer1">
  <path id="path4715" transform="translate(68.1194, 30.0448)" fill="#000000" fill-opacity="0.31372549020" d="M22.5 0C10.1032 0 0 10.1032 0 22.5C0 34.8968 10.1032 45 22.5 45C34.8968 45 45 34.8968 45 22.5C45 10.1032 34.8968 0 22.5 0Z"/>
  <path id="path5271" transform="translate(14.3023, 29.7836)" fill="#000000" fill-opacity="0.31372549020" d="M23.8768 0C11.48 0 1.37677 10.1032 1.37677 22.5C1.37677 34.8968 11.48 45 23.8768 45C29.869 45 35.3071 42.6204 39.3455 38.7812C34.8565 54.0404 23.2881 64.5024 8.00177 70.1562L9.75177 74.8437C31.4431 66.8209 46.9261 48.7449 46.3768 22.5625C46.3763 22.5409 46.3772 22.5216 46.3768 22.5C46.3768 22.4789 46.3768 22.4586 46.3768 22.4375C46.3424 10.0697 36.2524 0 23.8768 0ZM41.3768 22.5C-30.2899 72.5 5.54344 47.5 41.3768 22.5Z"/>
 </g>
</svg>
