<?xml version="1.0" encoding="utf-8"?>
<!-- Generator: Adobe Illustrator 16.0.0, SVG Export Plug-In . SVG Version: 6.00 Build 0)  -->
<!DOCTYPE svg PUBLIC "-//W3C//DTD SVG 1.1//EN" "http://www.w3.org/Graphics/SVG/1.1/DTD/svg11.dtd">
<svg version="1.1" id="Layer_1" xmlns="http://www.w3.org/2000/svg" xmlns:xlink="http://www.w3.org/1999/xlink" x="0px" y="0px"
	 width="591.046px" height="339.739px" viewBox="0 0 591.046 339.739" style="enable-background:new 0 0 591.046 339.739;"
	 xml:space="preserve">
<style type="text/css">
<![CDATA[
	.st0{fill-rule:evenodd;clip-rule:evenodd;fill:#00131D;}
]]>
</style>
<g>
	<path class="st0" d="M154.589,133.83c0.464,0.208,0.8,0.621,1.021,1.246c0.223,0.632,0.329,1.487,0.332,2.57l0.637,0.957
		c0.244-0.016,0.501-0.109,0.765-0.274c0.305-0.19,0.62-0.477,0.935-0.849l0,0c0.341-0.398,0.598-0.81,0.768-1.226
		c0.171-0.417,0.257-0.844,0.257-1.27c0-1.466-0.401-2.686-1.21-3.667c-0.782-0.947-1.948-1.678-3.505-2.195V133.83L154.589,133.83z
		 M528.312,178.871c3.576-3.633,8.387-7.021,14.498-10.064c6.11-3.094,10.141-5.5,12.222-7.218c2.015-1.718,4.55-4.419,7.606-8.052
		l0.779,0.884c0,0.785-1.625,3.143-4.941,7.071c0,1.325,1.301,2.848,3.966,4.566c2.665,1.669,6.501,2.504,11.572,2.504
		c1.886,0,4.745-0.785,8.517-2.308l0.779,0.589c-4.03,2.111-8.321,4.615-12.741,7.513c-4.421,2.896-8.257,4.32-11.442,4.32
		c-4.03,0-7.735-1.229-11.115-3.732c-3.381-2.455-5.331-3.682-5.982-3.682c-0.779,0-2.729,1.031-5.784,3.094
		c-3.121,2.111-5.786,4.713-7.933,7.904v31.178c0,5.5,3.446,9.133,10.401,10.949l2.471,1.131l-2.274,0.98
		c-8.321,1.621-14.952,5.99-19.893,13.061l-1.561,1.572c-0.65,0-0.975-0.295-0.975-0.885c0-0.49,0.585-1.424,1.82-2.848
		c1.234-1.424,1.82-2.455,1.82-3.143c0-0.883-1.496-2.504-4.552-4.91c-3.055-2.404-5.786-3.584-8.32-3.584
		c-1.171,0-2.926,0.295-5.331,0.885l-1.43-0.59c0-0.49,1.234-1.178,3.64-1.965c6.437-2.209,9.687-5.105,9.687-8.789v-32.012
		c0-2.111-1.3-4.125-3.9-6.039c-2.601-1.916-4.941-2.896-6.956-2.896c-1.626,0-3.966,1.08-7.021,3.289l-0.78-0.934
		c0-0.736,3.705-3.191,11.051-7.266c7.346-4.075,11.572-6.825,12.808-8.2c1.234-1.375,1.506-0.916,2.741-3.861l0.78,0.884
		c0,1.62-0.532,2.143-3.587,6.808c6.241,4.714,9.36,8.25,9.36,10.654V178.871L528.312,178.871z M590.267,215.746l0.779,0.588
		c0,0.885-3.38,3.93-10.076,9.281c-6.696,5.303-11.962,10.654-15.732,16.006l-0.779-0.588c0-0.787,0.584-1.965,1.819-3.535
		c1.235-1.572,1.82-2.75,1.82-3.535c0-0.492-0.91-1.229-2.665-2.309c-5.071-3.24-8.451-7.07-10.076-11.49
		c-1.626-4.418-2.471-9.082-2.471-14.09c0-11,3.9-19.445,11.767-25.336c7.866-5.893,12.481-8.84,13.847-8.84l1.17,0.59l-1.17,0.885
		c-9.166,4.959-13.717,12.52-13.717,22.684c0,15.713,6.046,23.568,18.072,23.568C584.869,219.625,587.34,218.348,590.267,215.746
		L590.267,215.746z M475.07,163.062l3.056,1.571c9.167,3.928,13.717,8.494,13.717,13.699c0,2.799-1.17,5.695-3.51,8.689
		c-2.341,3.045-6.826,6.58-13.457,10.656c-6.697,4.074-11.247,7.463-13.782,10.164l-0.78-0.59c0-1.621,2.146-3.977,6.501-7.119
		c4.355-3.094,7.216-5.844,8.516-8.25c1.366-2.404,2.017-4.762,2.017-7.07c0-2.945-1.432-5.5-4.356-7.658
		c-2.926-2.162-4.94-3.242-6.046-3.242c-2.925,0-5.656,2.014-8.255,6.039c-2.601,4.027-3.902,10.164-3.902,18.363
		c0,8.053,2.797,14.092,8.387,18.119c5.655,4.025,11.767,6.039,18.463,6.039c1.625,0,4.355-1.67,8.191-5.059
		c0.845,0,1.235,0.443,1.235,1.377c0,2.012-6.566,6.137-19.764,12.322c-6.565,2.947-10.661,5.305-12.286,7.021
		c-1.69,1.719-2.601,3.486-2.861,5.303c-1.234,0-1.819-0.293-1.819-0.883c0-2.553,2.471-5.598,7.411-9.133l-2.471-1.57
		c-12.286-6.041-18.462-15.271-18.462-27.645c0-11.391,8.256-23.273,24.703-35.548c5.07-3.633,8.841-7.365,11.376-11.244
		c0.845,0,1.235,0.393,1.235,1.129C476.111,161.048,475.07,162.57,475.07,163.062L475.07,163.062z M391.141,213.389
		c0,3.143,1.432,5.695,4.292,7.66c2.859,1.963,2.948,2.945,7.108,2.945c3.315,0,6.619-1.244,9.881-3.682
		c6.187-4.625,5.808-25.291,2.601-32.717c-1.504-3.48-2.275-6.137-2.275-8.053c0-6.824,3.737-12.066,11.182-15.957l1.69-0.883
		c3.788-1.98,6.046-2.996,6.825-2.996l1.171,0.589l-0.78,0.639c-4.681,1.915-7.021,4.91-7.021,8.936
		c0,13.59,16.364,28.518,1.626,43.764c-3.623,3.748-10.856,7.807-21.713,12.275c-10.856,4.467-14.216,9.34-18.746,12.273
		l-1.365,0.885l-0.779-0.59c0-0.49,0.454-1.178,1.365-2.111c0.845-0.932,1.299-1.619,1.299-2.111c0-1.324-2.274-3.191-6.89-5.547
		c-5.036-2.572-9.66-4.824-15.014-2.752l-1.235-0.588l3.38-2.16c5.317-3.398,8.904-7.316,8.904-13.355v-26.465
		c0-2.799-1.171-4.959-3.446-6.58c-2.275-1.57-4.226-2.355-5.852-2.355c-0.909,0-3.51,1.178-7.8,3.584l-0.781-0.59
		c0-0.688,3.251-3.092,9.816-7.315c6.501-4.174,11.832-8.445,15.862-12.766l0.78,0.589l-4.161,5.4c0,0.491,1.691,1.424,5.071,2.799
		c3.314,1.375,5.005,3.683,5.005,6.826C391.141,177.447,391.141,178.83,391.141,213.389L391.141,213.389z M325.737,216.875
		c-3.771,4.125-10.336,8.691-19.566,13.65c-7.478,4.025-13.068,8.199-16.708,12.52l-0.975,0.982c-0.65,0-0.975-0.295-0.975-0.883
		c0-0.787,1.365-2.309,4.095-4.666c2.73-2.307,4.095-4.025,4.095-5.057l-1.885-2.16c-7.996-6.139-12.026-14.238-12.026-24.305
		c0-13.453,9.991-26.303,29.969-38.495c6.09-3.717,9.815-5.865,15.796-11.512l0.78,0.589c0,0.687-0.129,0.857-5.07,5.521
		c12.157,7.12,20.349,10.704,24.573,10.802c1.496,0.098,2.276,0.393,2.276,0.934c-6.826,2.799-10.207,5.057-10.207,6.873v31.768
		c0,3.732,1.496,6.775,4.551,9.084c3.056,2.357,5.656,3.535,7.801,3.535c1.301,0,3.9-1.031,7.802-3.143
		c0.649,0,0.976,0.295,0.976,0.885c0,0.588-2.861,2.16-8.517,4.811c-5.656,2.652-12.352,7.17-20.088,13.602l-0.39-0.59
		c0-0.785,2.08-3.143,6.306-7.07c0-0.49-0.976-1.326-2.86-2.602C328.988,227.58,325.737,222.521,325.737,216.875L325.737,216.875z
		 M325.413,213.93v-33.389c0-1.326-2.017-3.094-5.981-5.254c-3.966-2.16-6.631-3.24-7.996-3.24c-1.495,0-4.16,2.799-7.932,8.445
		c-3.705,5.598-5.59,12.422-5.59,20.475c0,6.529,1.495,11.783,4.551,15.762c3.056,3.977,6.565,5.99,10.596,5.99
		C317.286,222.719,321.382,219.771,325.413,213.93L325.413,213.93z M256.378,163.062l3.056,1.571
		c9.166,3.928,13.717,8.494,13.717,13.699c0,2.799-1.17,5.695-3.511,8.689c-2.34,3.045-6.826,6.58-13.457,10.656
		c-3.546,2.156-6.49,4.123-8.852,5.895l0.12,0.211c2.967,5.295,4.869,11.125,5.667,17.111c3.134,1.053,6.403,1.578,9.826,1.578
		c1.625,0,4.355-1.67,8.191-5.059c0.845,0,1.235,0.443,1.235,1.377c0,1.969-6.292,5.963-18.934,11.932
		c-0.375,5.533-1.69,11.027-3.974,16.195c-6.311,14.279-20.015,26.068-41.707,29.299c8.857,18.908,4.164,35.379-6.951,46.811
		c-5.406,5.561-12.331,9.926-19.953,12.799c-7.621,2.873-15.941,4.254-24.137,3.842c-18.719-0.939-36.794-11.223-44.45-34.408
		c-6.52,3.873-13.215,6.773-20.09,8.709c-6.93,1.951-14.044,2.924-21.348,2.924c-9.625,0-18.399-0.971-26.334-2.922
		c-7.939-1.951-15.04-4.883-21.314-8.801h0c-6.282-3.893-11.001-8.451-14.151-13.658c-3.153-5.213-4.734-11.076-4.734-17.57
		c0-0.898,0.077-1.561,0.237-2.004c0.177-0.49,0.457-0.727,0.846-0.727c0.363,0,0.629,0.27,0.797,0.822
		c0.151,0.498,0.227,1.248,0.227,2.26c0,5.121,1.523,10.008,4.568,14.654c3.047,4.648,7.62,9.059,13.717,13.221h0
		c6.109,4.141,12.954,7.254,20.533,9.33c7.566,2.072,15.868,3.113,24.903,3.113c8.087,0,15.598-0.988,22.519-2.967
		c6.868-1.965,13.156-4.91,18.848-8.84c-0.23-1.793-0.403-3.484-0.519-5.066c-0.118-1.617-0.178-3.123-0.178-4.51
		c0-2.457,0.297-4.811,0.891-7.047c0.592-2.227,1.478-4.338,2.659-6.314c1.185-1.984,2.387-3.482,3.598-4.486
		c1.224-1.012,2.459-1.523,3.698-1.523c4.446,0,6.669,2.754,6.669,8.258c0,4.092-1.203,8.021-3.608,11.762
		c-2.376,3.697-5.929,7.211-10.656,10.521c6.5,20.41,22.904,29.205,40.254,29.791c8.04,0.273,16.285-1.217,23.841-4.129
		s14.423-7.246,19.711-12.664c10.23-10.479,14.549-25.018,6.497-41.154c-3.71-0.18-7.083-0.596-10.124-1.264
		c-3.067-0.676-5.798-1.605-8.197-2.805c-2.393-1.195-4.186-2.457-5.382-3.797h0c-1.209-1.355-1.813-2.791-1.813-4.326
		c0-2.391,0.603-4.189,1.806-5.393v-0.002c1.204-1.203,3.001-1.805,5.393-1.805c1.39,0,2.739,0.156,4.049,0.467
		c1.112-1.346,1.94-2.738,1.939-4.129l-1.662-1.777c-7.271-6.693-12.774-14.688-16.41-24.047l-0.623-2.051
		c-3.324-9.836-4.986-20.768-4.986-32.791v-1.641c0-0.928,0.016-1.898,0.047-2.912c-4.405,1.803-8.492,4-12.263,6.6
		c-0.009,0.305-0.074,0.705-0.199,1.197c-0.125,0.492-0.315,1.086-0.574,1.775c-0.261,0.725-0.45,1.51-0.573,2.354
		s-0.182,1.748-0.182,2.713v34.564c0.555,0.4,0.979,1.014,1.265,1.822c0.291,0.824,0.44,1.854,0.44,3.072
		c0,1.363-0.368,2.383-1.096,3.064h0c-0.726,0.68-1.802,1.018-3.22,1.018c-1.912,0-3.809-0.494-5.681-1.49
		c-1.852-0.986-3.681-2.463-5.479-4.438l0,0c-1.806-1.953-3.153-4.07-4.048-6.35c-0.896-2.281-1.34-4.725-1.34-7.33
		c0-5.875,1.315-11.354,3.944-16.426c2.616-5.045,6.532-9.688,11.747-13.918l-0.341-2.332l-0.002-0.012v-0.008
		c0-0.756,0.123-1.424,0.367-1.994c0.235-0.549,0.583-1.008,1.044-1.369v-1.525c-1.415-0.361-2.477-0.941-3.19-1.734
		c-0.737-0.822-1.102-1.867-1.102-3.139c0-0.602,0.12-1.174,0.35-1.715c0.234-0.551,0.585-1.07,1.041-1.559
		c0.481-0.51,0.965-0.889,1.466-1.139c0.462-0.23,0.937-0.354,1.436-0.373v-0.377h-19.924v48.232c-0.5,1.352-1.06,2.756-1.669,4.225
		h1.483h0.832l-0.39,0.734c-0.838,1.58-1.741,3.182-2.707,4.805c-0.965,1.623-1.987,3.258-3.063,4.898l-0.002,0.002
		c-3.327,5.039-6.119,9.666-8.376,13.865c-2.274,4.23-4.006,8.027-5.197,11.377l-0.172,0.482l-0.479-0.184l-0.55-0.213l-0.274-0.107
		l-0.041-0.289c-0.052-0.381-0.009-1.055,0.127-2.014c0.107-0.752,0.274-1.703,0.498-2.852c-1.274,1.387-2.66,2.73-4.157,4.031
		c-3.125,2.711-6.734,5.23-10.829,7.559l0,0c-4.099,2.357-8.507,4.127-13.223,5.307c-4.716,1.178-9.741,1.768-15.073,1.768
		c-2.36,0-4.704-0.113-7.029-0.34c-0.056,0.301-0.107,0.602-0.154,0.906c-0.501,3.24-0.502,6.686-0.004,10.314
		c0.116,0.85,0.148,1.518,0.094,1.992c-0.076,0.66-0.331,1.049-0.769,1.154c-0.513,0.123-0.905-0.176-1.186-0.881
		c-0.19-0.479-0.349-1.199-0.479-2.156c-0.486-3.545-0.517-7.141-0.091-10.775c0.033-0.281,0.068-0.561,0.106-0.842
		c-1.998-0.266-3.983-0.617-5.955-1.053c-5.067-1.119-10.046-2.799-14.936-5.037h0c-4.89-2.268-9.398-4.965-13.515-8.102
		c-4.116-3.137-7.843-6.717-11.172-10.752l-2.058-2.412l-0.007-0.008c-3.945-5.447-6.905-11.07-8.88-16.857
		C0.989,229.906,0,223.947,0,217.84c0-5.92,0.825-11.432,2.467-16.516c1.644-5.092,4.108-9.754,7.383-13.973
		c3.273-4.246,7.151-7.83,11.642-10.758c4.446-2.898,9.492-5.152,15.145-6.77c-2.673-5.58-4.682-11.406-6.025-17.478
		c-1.355-6.127-2.033-12.504-2.033-19.127c0-10.482,1.532-20.405,4.594-29.77S40.83,85.28,46.955,77.034
		c6.125-8.274,13.428-15.386,21.901-21.349c8.449-5.946,18.062-10.75,28.829-14.425c0.509-6.097,2.056-11.612,4.639-16.559
		c2.597-4.972,6.24-9.369,10.929-13.202c4.688-3.833,9.759-6.707,15.215-8.625C133.923,0.958,139.76,0,145.979,0
		c6.748,0,13.056,0.988,18.929,2.97c5.875,1.983,11.313,4.96,16.325,8.939c5.004,3.944,8.759,7.302,11.264,10.08
		c2.523,2.798,3.785,5.021,3.785,6.673v0.027l-0.011,0.026l-0.353,0.882l-0.096,0.24l-0.15-0.21l-0.882-1.235l-0.003-0.004
		c-5.837-8.771-12.994-15.341-21.47-19.718c-8.476-4.377-18.275-6.563-29.396-6.563c-11.315,0-21.283,3.576-29.901,10.728v0
		c-4.277,3.574-7.618,7.72-10.02,12.437c-2.374,4.661-3.833,9.88-4.377,15.656c6.067-1.991,12.238-3.482,18.502-4.479
		c6.371-1.014,12.835-1.518,19.385-1.518c9.07,0,17.862,1.017,26.362,3.051c8.489,2.032,16.684,5.078,24.569,9.138v0
		c7.918,4.033,15.014,8.715,21.3,14.043c6.286,5.33,11.764,11.308,16.445,17.933s8.202,13.105,10.551,19.453
		c2.351,6.352,3.53,12.572,3.53,18.675c0,6.628-0.84,12.831-2.52,18.614c-1.68,5.784-4.201,11.149-7.562,16.102v0
		c-3.39,4.952-7.414,9.226-12.093,12.823c-4.679,3.596-10.013,6.515-16.024,8.753h0c-3.741,1.385-7.529,2.387-11.376,2.998
		c-2.324,0.369-4.67,0.598-7.041,0.68v3.512l0.002,1.023l0.341-0.074l0,0c3.448-0.766,7.029-1.275,10.73-1.551
		c3.702-0.277,7.53-0.32,11.474-0.158c8.776,0.363,16.389,2.477,22.792,5.852c4.107-5.619,10.052-11.334,17.828-17.138
		c5.071-3.633,8.841-7.365,11.377-11.244c0.845,0,1.235,0.393,1.235,1.129C257.418,161.048,256.378,162.57,256.378,163.062
		L256.378,163.062z M244.632,205.729c-0.866,0.746-1.609,1.449-2.231,2.113l-0.78-0.59c0-0.914,0.683-2.063,2.059-3.453
		c-1.945-3.713-4.42-7.135-7.432-10.115c-0.102,1.463-0.153,3.006-0.153,4.631c0,8.053,2.796,14.092,8.386,18.119
		c1.321,0.939,2.667,1.771,4.04,2.492c-0.663-4.521-1.929-8.92-3.803-13.014L244.632,205.729L244.632,205.729z M246.156,201.615
		c0.596-0.473,1.25-0.967,1.965-1.482c4.356-3.094,7.216-5.844,8.516-8.25c1.366-2.404,2.016-4.762,2.016-7.07
		c0-2.945-1.431-5.5-4.356-7.658c-2.925-2.162-4.94-3.242-6.046-3.242c-2.925,0-5.656,2.014-8.255,6.039
		c-1.729,2.678-2.884,6.291-3.463,10.82C240.382,193.904,243.596,197.58,246.156,201.615L246.156,201.615z M248.676,232.951
		c-4.298,2.104-7.083,3.84-8.355,5.184c-1.69,1.719-2.601,3.486-2.861,5.303c-1.235,0-1.82-0.293-1.82-0.883
		c0-2.553,2.471-5.598,7.411-9.133l-2.471-1.57c-12.287-6.041-18.462-15.271-18.462-27.645c0-5.496,1.923-11.109,5.762-16.824
		c-5.788-3.24-12.775-5.242-20.982-5.508c-3.935-0.127-7.731-0.07-11.369,0.164c-3.68,0.236-7.198,0.654-10.537,1.244h0
		c-0.441,0.078-0.88,0.156-1.316,0.24c0.04,2.395,0.136,4.135,0.29,5.242v2.186c0.883,13.664,3.479,24.32,7.686,31.973
		c4.206,7.721,9.502,11.547,15.89,11.547c3.531,0,8.359-4.033,14.435-12.025l0.624,0.412c0,1.979-4.674,7.582-14.073,16.736
		c-9.399,9.223-14.89,15.049-16.564,17.49c-0.148,0.215-0.294,0.432-0.439,0.648c2.144,0.717,4.177,1.871,6.097,3.461
		c3.471,2.873,6.574,7.168,9.309,12.881c19.522-1.508,32.387-13.246,38.332-27.873C246.98,241.967,248.121,237.49,248.676,232.951
		L248.676,232.951z M188.508,97.689c2.336,0.924,5.695,3.012,10.077,6.331c4.381,3.32,7.704,5.374,9.967,6.195
		c2.264,0.855,4.344,1.266,6.279,1.266c0.986,0,1.936-0.137,2.885-0.411l0.84-0.205c2.738-0.787,5.513-2.361,8.36-4.689l0.438,0.411
		c-2.482,3.251-4.746,5.681-6.754,7.29l-0.73,0.582c-3.979,2.465-8.36,3.697-13.034,3.697c-3.843,0-7.069-0.429-9.659-1.287
		c-7.742,12.906-12.162,30.236-13.212,51.81l-0.312,1.64l0,4.525c1.878-0.105,3.738-0.293,5.577-0.559
		c3.993-0.58,7.892-1.535,11.686-2.857h0c5.773-1.993,10.916-4.615,15.428-7.858c4.522-3.25,8.413-7.125,11.671-11.617
		c3.256-4.488,5.706-9.285,7.341-14.374c1.633-5.084,2.453-10.463,2.453-16.122c0-10.944-2.421-21.097-7.261-30.462
		c-4.842-9.369-12.108-17.955-21.795-25.763c-9.694-7.785-20.594-13.63-32.698-17.527c-12.094-3.895-25.393-5.846-39.896-5.846
		c-6.611,0-12.97,0.441-19.078,1.329c-6.069,0.882-11.893,2.207-17.469,3.981c0.301,4.122,1.207,8.186,2.708,12.178
		c1.505,4,3.61,7.929,6.306,11.771c3.209-1.479,6.506-2.583,9.897-3.319c3.428-0.745,6.952-1.113,10.578-1.113
		c3.103,0,6.075,0.355,8.898,1.066c2.814,0.708,5.483,1.771,7.989,3.186c2.518,1.422,4.401,3.024,5.655,4.812v0
		c1.26,1.796,1.886,3.779,1.886,5.954c0,1.124-0.396,2.216-1.186,3.26c-0.775,1.024-1.932,2.002-3.47,2.918
		c-1.547,0.922-3.155,1.621-4.823,2.087c-1.652,0.462-3.363,0.697-5.129,0.697c-6.692,0-12.724-1.415-18.093-4.238
		c-5.345-2.809-10.031-7.013-14.058-12.6c-9.397,4.818-16.85,11.242-22.508,18.579c0.571,0.273,1.116,0.569,1.633,0.889
		c3.545,2.19,7.044,5.147,10.499,8.926c3.454,3.724,6.362,6.406,8.726,7.995c2.363,1.588,5.272,2.409,8.727,2.409
		c3.545,0,6.544-1.095,9.044-3.285c2.5-2.19,3.727-4.271,3.727-6.188c0-2.464,0.273-3.669,0.863-3.669l0.273,4.655
		c0,3.833-2.182,8.104-6.5,12.923c-12.146,13.413-20.25,9.026-26.951,5.694c-2.909-1.479-7.09-4.818-12.544-10.13
		c-2.241-2.183-4.259-4.022-6.055-5.525c-4.743,11.227-6.303,23.349-5.063,34.597c0.19-0.203,0.381-0.522,0.561-0.965
		c0.226-0.557,0.433-1.302,0.599-2.247l0.001-0.005c0.209-0.984,0.45-1.718,0.729-2.209c0.299-0.525,0.648-0.785,1.056-0.785h0.126
		l0.015,0.126l0.706,5.998l0.001,0.01v0.006c0,0.776,0.099,1.637,0.291,2.575c0.197,0.964,0.492,2.014,0.876,3.14
		c0.412,1.118,0.722,2.049,0.929,2.789c0.209,0.748,0.314,1.305,0.314,1.67c0,0.934-0.182,1.735-0.539,2.411
		c-0.343,0.649-0.847,1.18-1.503,1.597c0.709,3.448,3.998,8.708,7.9,14.947c3.348,5.353,7.146,11.427,10.164,17.718
		c1.911,3.982,2.823,8.127,3.105,12.311c0.279,4.135-0.055,8.309-0.645,12.41c3.301,0.547,6.487,0.967,9.571,1.248
		c3.123,0.285,6.147,0.432,9.087,0.432h3.058h0.016l0.021,0.006l0.073,0.021v-35.979h-10.394l-8.051,9.375v-11.422l7.026-8.153
		h11.419v-35.181c4.068-11.021,7.881-16.621,15.107-24.864v60.045h17.49l-0.745-0.581l-1.763-1.352l-0.004-0.003
		c-3.192-2.66-5.587-5.735-7.183-9.231c-1.597-3.496-2.395-7.412-2.395-11.753c0-2.66,0.34-5.085,1.021-7.282
		c0.681-2.2,1.704-4.171,3.067-5.918c1.364-1.751,2.865-3.058,4.499-3.927c1.638-0.872,3.41-1.304,5.315-1.304h0.917v-14.677
		c0-0.752,0.078-1.329,0.239-1.722c0.178-0.433,0.457-0.654,0.843-0.654c0.366,0,0.632,0.314,0.797,0.933
		c0.151,0.563,0.227,1.4,0.227,2.502v14c1.979,0.453,3.484,1.242,4.5,2.366c1.033,1.143,1.557,2.627,1.557,4.452
		c0,1.62-0.525,2.972-1.559,4.056c-1.015,1.064-2.519,1.866-4.499,2.403v24.531c0,0.851,0.06,1.672,0.177,2.448
		c0.037,0.243,0.079,0.481,0.127,0.714h15.276c3.76-23.508,12.201-41.038,25.275-52.536l-0.183-0.086
		c-2.848-1.369-5.659-3.217-8.434-5.579c-2.775-2.327-5.111-4.004-7.009-4.997c-1.899-0.993-4.235-1.506-7.01-1.506
		c-2.848,0-5.258,0.685-7.266,2.054c-2.008,1.369-2.994,2.669-2.994,3.867c0,1.54-0.219,2.293-0.693,2.293l-0.219-2.909
		c0-2.396,1.752-5.065,5.221-8.077C176.615,92.865,183.125,95.607,188.508,97.689L188.508,97.689z M111.541,260.449
		c-0.323-0.191-0.733-0.4-1.231-0.627c-1.489-0.678-3.694-1.438-6.618-2.266l0-0.002c-2.926-0.803-5.718-1.27-8.385-1.391
		c-2.655-0.121-5.19,0.105-7.613,0.682c-5.126,1.225-9.528,2.98-13.211,5.264c-3.674,2.277-6.638,5.082-8.9,8.406l-0.77,1.535
		l-0.006,0.012c-0.996,1.873-1.771,3.842-2.325,5.902c2.249,0.203,4.521,0.303,6.814,0.303c6.202,0,11.991-0.764,17.359-2.303
		c5.348-1.531,10.28-3.832,14.787-6.904h0.001C105.224,266.525,108.588,263.654,111.541,260.449L111.541,260.449z M59.854,277.682
		c0.49-2.621,1.214-5.266,2.174-7.928l0.006-0.02l0.748-1.844l0.004-0.006c1.626-3.836,3.592-7.359,5.893-10.586
		c2.305-3.232,4.946-6.166,7.919-8.816l0.003-0.002c3.003-2.629,6.091-4.801,9.269-6.514c3.187-1.721,6.462-2.982,9.832-3.785
		c4.382-1.047,8.623-1.24,12.714-0.582c2.998,0.482,5.913,1.424,8.742,2.824v-23.91l-0.429,0.111l-0.02,0.004h-0.016h-4.646
		c-2.618,0-5.373-0.146-8.254-0.434c-2.836-0.283-5.796-0.703-8.871-1.25c-0.258,1.027-0.57,1.885-0.929,2.572
		c-0.388,0.746-0.833,1.301-1.327,1.67l-0.291,0.219l0.067-0.357l0.857-4.512c-12.724-2.949-23.725-7.977-33.007-15.086
		c-9.286-7.113-16.852-16.313-22.706-27.602c-4.995,1.609-9.501,3.973-13.515,7.086c-4.045,3.135-7.592,7.035-10.641,11.695h0
		c-3.021,4.666-5.296,9.584-6.814,14.734c-1.516,5.143-2.277,10.521-2.277,16.121c0,5.066,0.761,10.031,2.275,14.885
		c1.517,4.867,3.792,9.623,6.814,14.262l2.054,2.758c3.05,3.988,6.526,7.523,10.436,10.596c3.91,3.074,8.251,5.686,13.032,7.826
		c4.789,2.145,9.726,3.76,14.796,4.838C55.762,277.08,57.798,277.424,59.854,277.682L59.854,277.682z M168.954,178.924h-14.129
		v0.377c0.499,0.02,0.974,0.143,1.436,0.373c0.5,0.25,0.984,0.629,1.466,1.139c0.457,0.488,0.806,1.008,1.041,1.559
		c0.231,0.541,0.351,1.113,0.351,1.715c0,1.271-0.366,2.316-1.103,3.139c-0.714,0.793-1.775,1.373-3.19,1.734v1.555l1.312,2.078
		c3.632-2.428,7.733-4.541,12.31-6.348C168.548,183.996,168.719,181.555,168.954,178.924L168.954,178.924z M72.982,104.958
		c-1.387-1.014-2.596-1.76-3.629-2.242c-2.818-1.369-5.409-2.026-7.817-2.026c-1.227,0-2.409,0.219-3.59,0.657l-1.045,0.329
		c-3.409,1.259-6.863,3.778-10.408,7.502l-0.545-0.657c3.091-5.202,5.909-9.09,8.408-11.664l0.909-0.931
		c4.954-3.943,10.407-5.914,16.225-5.914c3.75,0,7.028,0.421,9.822,1.265c5.823-7.068,13.809-13.414,24.417-18.916
		c-2.258-3.414-4.057-7.188-5.396-11.311c-1.341-4.129-2.222-8.612-2.641-13.439c-10.236,3.311-19.34,7.697-27.302,13.148
		c-8.008,5.482-14.865,12.045-20.562,19.679h0c-5.693,7.6-9.963,15.833-12.811,24.687c-2.849,8.859-4.273,18.345-4.273,28.447
		c0,6.58,0.587,12.836,1.763,18.76c1.167,5.881,2.912,11.435,5.235,16.655c1.759-0.371,3.477-0.658,5.165-0.853
		c1.727-0.199,3.423-0.302,5.103-0.302c3.867,0,7.468,0.546,10.805,1.639c3.338,1.093,6.411,2.733,9.217,4.918
		c2.807,2.188,4.907,4.449,6.305,6.803c1.402,2.359,2.1,4.811,2.1,7.363c0,1.232-0.184,2.17-0.551,2.803
		c-0.38,0.654-0.95,0.984-1.708,0.984c-0.707,0-1.236-0.381-1.584-1.148c-0.332-0.73-0.498-1.824-0.498-3.285
		c0-2.74-0.611-5.186-1.827-7.348c-1.216-2.164-3.039-4.043-5.459-5.648c-2.428-1.609-5.076-2.809-7.943-3.605
		c-2.868-0.797-5.958-1.192-9.268-1.192c-1.673,0-3.255,0.088-4.763,0.256c-1.447,0.162-2.828,0.398-4.154,0.701
		c4.865,10.899,11.707,19.812,20.515,26.731c8.819,6.93,19.613,11.863,32.372,14.805c0.878-18.127-5.104-27.752-11.203-37.566
		c-3.438-5.532-6.915-11.125-9.23-18.335h-0.957c-1.186,0-2.191-0.426-3.005-1.271c-0.803-0.833-1.418-2.075-1.835-3.716l0-0.003
		c-0.38-1.609-0.967-3.382-1.744-5.309c-0.778-1.931-1.747-4.016-2.891-6.244l-0.068-0.132l0.137-0.061l1.588-0.706l0.029-0.013
		h0.028c0.41,0,0.805,0.111,1.174,0.333c0.359,0.215,0.695,0.537,0.999,0.962l0.001,0.001c0.253,0.365,0.578,0.661,0.966,0.878
		c0.341,0.191,0.732,0.323,1.169,0.39C67.266,128.471,68.259,116.074,72.982,104.958L72.982,104.958z M190.053,260.053
		c-1.064,1.758-2.219,3.826-3.735,6.627l-1.97-2.281c0.143-1.391,1.922-3.078,3.73-4.914c-0.924-0.195-1.863-0.291-2.817-0.291
		c-1.224,0-2.132,0.309-2.728,0.934c-0.598,0.627-0.894,1.578-0.894,2.865c0,1.525,0.492,2.92,1.48,4.188
		c0.995,1.275,2.494,2.426,4.5,3.447c2.002,1.023,4.361,1.832,7.068,2.412c2.611,0.561,5.547,0.91,8.798,1.033
		c-2.662-4.932-5.494-8.639-8.508-11.119C193.388,261.645,191.747,260.678,190.053,260.053L190.053,260.053z M109.755,72.466
		c4.161,4.709,8.739,8.253,13.732,10.625c5.034,2.39,10.493,3.589,16.377,3.589c1.549,0,2.996-0.146,4.345-0.43
		c1.348-0.284,2.602-0.708,3.769-1.262v0c1.155-0.578,2.02-1.241,2.595-1.995c0.568-0.746,0.853-1.585,0.853-2.523
		c0-1.443-0.583-2.861-1.747-4.229c-1.164-1.368-2.91-2.688-5.235-3.938l-0.001,0c-2.341-1.287-4.771-2.253-7.288-2.897
		s-5.122-0.966-7.816-0.966c-3.432,0-6.789,0.337-10.078,1.019C116.031,70.126,112.865,71.127,109.755,72.466L109.755,72.466z
		 M113.218,301.609c4.034-3.145,7.061-6.303,9.084-9.479c2.05-3.217,3.072-6.455,3.072-9.723c0-2.088-0.331-3.65-1-4.686
		c-0.655-1.016-1.646-1.523-2.976-1.523c-0.847,0-1.742,0.416-2.685,1.238c-0.96,0.836-1.966,2.09-3.017,3.752
		c-1.05,1.693-1.839,3.52-2.364,5.475c-0.526,1.959-0.789,4.049-0.789,6.271c0,1.088,0.059,2.381,0.177,3.873
		C112.833,298.23,112.999,299.832,113.218,301.609L113.218,301.609z M152.483,236.811v-34.143c0-0.971-0.059-1.881-0.176-2.713
		c-0.105-0.744-0.257-1.43-0.456-2.045c-4.815,3.98-8.427,8.377-10.839,13.186c-2.438,4.861-3.652,10.148-3.652,15.859
		c0,2.229,0.324,4.311,0.979,6.234c0.648,1.908,1.623,3.664,2.929,5.262h0c1.288,1.609,2.385,2.811,3.292,3.607
		c0.884,0.775,1.574,1.162,2.067,1.162c0.256,0,0.461-0.25,0.61-0.738c0.163-0.537,0.248-1.344,0.248-2.414
		c0-1.084,0.437-1.906,1.318-2.455C149.633,237.096,150.857,236.826,152.483,236.811L152.483,236.811z M152.483,141.063
		c-1.068-0.03-1.884-0.404-2.439-1.128c-0.566-0.738-0.854-1.838-0.854-3.304c0-1.07,0.294-1.87,0.876-2.405
		c0.554-0.51,1.362-0.772,2.417-0.794v-4.658h-0.857c-1.919,0-3.648,0.422-5.179,1.265c-1.529,0.842-2.863,2.105-3.995,3.789
		c-1.139,1.693-1.985,3.445-2.547,5.255c-0.562,1.809-0.839,3.677-0.839,5.604c0,4.302,0.804,8.208,2.419,11.725
		c1.615,3.516,4.043,6.645,7.29,9.395l1.347,0.996l0.003,0.003l2.079,1.642c0.082-0.262,0.146-0.598,0.191-1.004
		c0.059-0.516,0.087-1.146,0.087-1.879V141.063L152.483,141.063z"/>
</g>
</svg>
