<?xml version="1.0" encoding="utf-8"?>
<!-- Generator: Adobe Illustrator 21.1.0, SVG Export Plug-In . SVG Version: 6.00 Build 0)  -->
<svg version="1.1" xmlns="http://www.w3.org/2000/svg" xmlns:xlink="http://www.w3.org/1999/xlink" x="0px" y="0px"
	 viewBox="0 0 606.6 524.8" style="enable-background:new 0 0 606.6 524.8;" xml:space="preserve">
<style type="text/css">
	.st0{fill:#231F20;}
	.st1{fill:#90E59A;}
	.st2{fill:#5CCE74;}
	.st3{fill:#75D66F;}
	.st4{fill:#8FE772;}
	.st5{fill:#A9F37E;}
	.st6{fill:#87DE71;}
	.st7{fill:none;}
	.st8{fill:#FBFDFC;}
	.st9{fill:#FFFFFF;}
	.st10{fill:#97EB74;}
	.st11{fill:#84CB71;}
	.st12{fill:#6CB960;}
	.st13{fill:#77C66C;}
	.st14{fill:#D07B84;}
	.st15{fill:#FEFEFE;}
	.st16{fill:#E1CB86;}
	.st17{fill:#DDC377;}
	.st18{fill:#DCC576;}
	.st19{fill:#F5D776;}
	.st20{fill:#959D64;}
</style>
<g id="Calque_2_-_copie_5">
	<path d="M400.3,437.6 M438.5,397.9 M133.3,148.1V49c0-23.9,16.5-39.8,40.1-39.8h237.7c7.8,0,14.5,2.3,20,7.9l60.1,61.3
		c5.5,5.7,7.7,13.2,7.7,21.1v189.3l9.4-0.1v-194c0-8.3-3.2-16.1-9-22L435.9,9.1c-5.8-5.8-13.8-9.1-22-9.1H169.4
		c-24.8,0-45,20.2-45,45v107.4L133.3,148.1z M124.4,348v131.9c0,24.8,20.2,45,45,45h57.2l0-9.2h-53.2c-23.5,0-40.1-16-40.1-39.8
		V352.2L124.4,348z M448,401.9 M403,446.9"/>
</g>
<g id="Calque_3">
	<path d="M476.9,87.4h-55.4V29.5c0-4.3,0-7.7-4.2-7.7c-4.3,0-4.2,3.5-4.2,7.7v58.6c0,4.3,3.4,7.7,7.7,7.7h56.1
		c4.3,0,7.7,0.1,7.7-4.2S481.1,87.4,476.9,87.4z"/>
</g>
<g id="Calque_6">
	<g>
		<path class="st0" d="M271.9,363.3c-13.8,0-16.7,5.9-16.7,10.8v61.1c0,4.9,2.9,10.8,16.7,10.8c13.8,0,16.7-5.9,16.7-10.8v-61.1
			C288.6,369.2,285.7,363.3,271.9,363.3z M264,377.1c0-4.8,2.4-6.9,7.9-6.9c5.5,0,7.9,2.1,7.9,6.9v55.2c0,4.8-2.4,6.9-7.9,6.9
			c-5.5,0-7.9-2.1-7.9-6.9V377.1z"/>
		<polygon class="st0" points="314.4,304.2 305.5,304.2 305.5,353.5 299.6,353.5 299.6,360.4 305.5,360.4 305.5,455.9 314.4,455.9 
			314.4,360.4 328.2,360.4 328.2,353.5 314.4,353.5 		"/>
		<path class="st0" d="M348.9,363.3c-13.8,0-16.7,5.9-16.7,10.8v61.1c0,4.9,2.9,10.8,16.7,10.8c13.8,0,16.7-5.9,16.7-10.8v-9.8h-8.9
			v6.9c0,4.8-2.4,6.9-7.9,6.9c-5.5,0-7.9-2.1-7.9-6.9v-16.7c2.2,0.6,4.8,0.9,7.9,0.9c13.8,0,16.7-5.9,16.7-10.8v-31.5
			C365.6,369.2,362.7,363.3,348.9,363.3z M341,377.1c0-4.8,2.4-6.9,7.9-6.9c5.5,0,7.9,2.1,7.9,6.9v25.6c0,4.8-2.4,6.9-7.9,6.9
			c-5.5,0-7.9-2.1-7.9-6.9V377.1z"/>
		<path class="st0" d="M395.9,363.3c-13.8,0-16.7,5.9-16.7,10.8v109.3h8.9v-38.3c2.2,0.6,4.8,0.9,7.9,0.9c13.8,0,16.7-5.9,16.7-10.8
			v-61.1C412.7,369.2,409.8,363.3,395.9,363.3z M388.1,377.1c0-4.8,2.4-6.9,7.9-6.9c5.5,0,7.9,2.1,7.9,6.9v55.2
			c0,4.8-2.4,6.9-7.9,6.9c-5.5,0-7.9-2.1-7.9-6.9V377.1z"/>
		<path class="st0" d="M443,363.3c-13.8,0-16.7,5.9-16.7,10.8v9.8h8.9v-6.9c0-4.8,2.4-6.9,7.9-6.9c5.5,0,7.9,2.1,7.9,6.9v16.7
			c-2.2-0.6-4.8-0.9-7.9-0.9c-13.8,0-16.7,5.9-16.7,10.8v31.5c0,4.9,2.9,10.8,16.7,10.8c13.8,0,16.7-5.9,16.7-10.8v-61.1
			C459.8,369.2,456.8,363.3,443,363.3z M435.1,406.6c0-4.8,2.4-6.9,7.9-6.9c5.5,0,7.9,2.1,7.9,6.9v25.6c0,4.8-2.4,6.9-7.9,6.9
			c-5.5,0-7.9-2.1-7.9-6.9V406.6z"/>
		<path class="st0" d="M498.7,364.2c-2.2-0.6-4.8-0.9-7.9-0.9c-13.8,0-16.7,5.9-16.7,10.8v61.1c0,4.9,2.9,10.8,16.7,10.8
			c13.8,0,16.7-5.9,16.7-10.8v-131h-8.9V364.2z M483,377.1c0-4.8,2.4-6.9,7.9-6.9c5.5,0,7.9,2.1,7.9,6.9v55.2c0,4.8-2.4,6.9-7.9,6.9
			c-5.5,0-7.9-2.1-7.9-6.9V377.1z"/>
		<polygon class="st0" points="530.3,363.3 521.4,363.3 521.4,383 511.5,383 511.5,389.9 521.4,389.9 521.4,409.6 530.3,409.6 
			530.3,389.9 540.1,389.9 540.1,383 530.3,383 		"/>
		<polygon class="st0" points="562.8,383 562.8,363.3 553.9,363.3 553.9,383 544,383 544,389.9 553.9,389.9 553.9,409.6 
			562.8,409.6 562.8,389.9 572.6,389.9 572.6,383 		"/>
	</g>
</g>
<g id="Calque_7">
</g>
<g id="Calque_9">
	<path class="st0" d="M234.4,304.2c-13.8,0-16.7,5.9-16.7,10.8v185.5h8.9V318c0-4.8,2.4-6.9,7.9-6.9s7.9,2.1,7.9,6.9v128h8.9v-131
		C251.2,310.1,248.3,304.2,234.4,304.2z"/>
</g>
<g id="Layer_1">
	<g>
		<path class="st1" d="M129.4,159.4c8.5-8.4,20.7-10.7,31.8-14.2c12.7-0.7,25.4,3.2,36.9,8.5c5,2,4.7,7.9,5.8,12.4
			c-3.6,0.8-7.2,1.5-10.8,2.4c1.6-2.5,3.1-4.9,4.6-7.4c-0.1-2.4-2.9-3.3-4.3-5c-1.9,1.3-3.8,2.6-5.7,3.9c-1.3-1.1-2.6-2.2-3.9-3.3
			c-3.5,0.5-7.3,1-10.6-0.9c-5.6-2.5-11.6-4.4-17.8-3.8c-2.8,1.2-5,3.4-7.3,5.3c0-1,0.1-3,0.1-4c-1.3,1.5-2.6,3-3.8,4.6
			c-8.6,0.9-12.6,9.8-10.7,17.5c-1.8,1.4-3.7,2.9-5.5,4.3c2-3.9,3.7-8.2,1.4-12.4c-6.4,1.9-6.9,8.9-9.8,13.9
			c-3,5.5-8.1,9.7-10.5,15.5c-0.2,3.2,0.3,6.3,0.6,9.5c-2.4-0.7-4.8-1.3-7.1-2C108.8,187.9,116.1,171.1,129.4,159.4L129.4,159.4z"/>
		<path class="st2" d="M148.1,157.4c2.4-1.9,4.5-4.2,7.3-5.3c6.2-0.6,12.2,1.3,17.8,3.8c-0.8,3.5-2,6.9-3.6,10.1
			c-4.8-2.5-9.6-5.2-14.1-8.1c0.9,1.8,1.8,3.6,2.7,5.4c-1,1.4-2.1,2.7-3.1,4.1c-2-2.6-4-5.2-5.9-7.9c-0.7,3.9-3.6,6.8-7.6,4.6
			c0.9-2.1,1.8-4.1,2.7-6.1c1.2-1.6,2.5-3.1,3.8-4.6C148.2,154.3,148.1,156.3,148.1,157.4L148.1,157.4z"/>
		<path class="st3" d="M173.2,155.8c3.3,1.9,7,1.4,10.6,0.9c1.3,1.1,2.6,2.2,3.9,3.3c1.9-1.3,3.8-2.6,5.7-3.9c1.3,1.7,4.2,2.6,4.3,5
			c-1.4,2.5-3,5-4.6,7.4c-0.9,0.2-2.7,0.6-3.5,0.9c1.8,2.2,3.6,4.4,5.4,6.5c-7.6,0.4-13.1-4.8-18.9-8.6c-5.3,0.8-9.1,6.5-14.6,7.1
			c-2.7-1.2-5.2-2.8-7.7-4.4c-0.9,2.9-1.5,5.9-3.2,8.4c-2.5,1.7-5.7,1.7-8.6,2.5c0.1,1.3,0.3,2.7,0.4,4c-3.1-3-6.9-5.8-11.3-3.8
			c3.2,3.3-1.6,4.6-3.8,6.1c-4.3,2.4-9.1,5.5-9.6,10.9c-1.2,3.1,0.1,7.9-3.4,9.6c-4.1,1.1-8.3,0.4-12.4,0.3c0.3-1,0.8-2.9,1.1-3.9
			c2.4,0.7,4.8,1.3,7.1,2c-0.4-3.2-0.9-6.3-0.6-9.5c2.4-5.8,7.5-10,10.5-15.5c2.9-5,3.4-12,9.8-13.9c2.3,4.2,0.6,8.5-1.4,12.4
			c1.8-1.5,3.6-2.9,5.5-4.3c-1.9-7.7,2.1-16.6,10.7-17.5c-0.9,2-1.8,4.1-2.7,6.1c3.9,2.2,6.9-0.7,7.6-4.6c1.9,2.7,3.9,5.3,5.9,7.9
			c1-1.4,2-2.7,3.1-4.1c-0.9-1.8-1.8-3.6-2.7-5.4c4.6,2.9,9.3,5.5,14.1,8.1C171.2,162.8,172.4,159.4,173.2,155.8 M133.3,219.4
			c2.2,0.4,4.3,0.8,6.5,1.3c-2.5,6.7-6,13.5-5.6,20.9c1.3,4.8,5.3,8.4,8.3,12.3c-4.4,1.3-10.5,0.3-13.5,4.4
			c-1.8,8,5.5,12.6,10.2,17.5c-6.8-2.5-14.4-6.1-16.8-13.6c3.3-4.1,7.4-7.4,11.7-10.6C127.9,242.2,125.2,228.4,133.3,219.4
			 M202.6,236.3c1.6,1.4,3.3,2.8,4.9,4.1c0.2,2.7,0.4,5.5,0.5,8.2C205.2,245,202.7,241.1,202.6,236.3 M245.2,238.4
			c1.7-2.4,4.6-2.2,6.4-0.1c3.4,4.4,5.3,9.6,7.6,14.6c2.9,0.2,5.8,0.4,8.6,0.6c-5.7,2.1-11.1,5.3-11.9,11.9
			c-2.4-3.4,1.1-6.5,2.5-9.6C255.2,249.1,247.4,245.7,245.2,238.4 M163.6,242.7l1.7-0.9c0.3,4.5,2.4,9.7-0.9,13.5
			c-3.3-0.3-6.5-0.5-9.7-1.1C159,251.4,162.2,247.9,163.6,242.7 M208,248.7c2.4,3.2,5.1,6,8.1,8.6c3.2-3.7,10.3-9.6,13.2-2.6
			c-4.8,2.3-10.8,4-12.4,9.8c0,0.2-0.1,0.5-0.1,0.7c0.7,5.1,2.6,10,4.1,14.9C209.9,273,216.5,257.7,208,248.7 M267.8,250.1
			c4.7,0.5,9.7,1.6,13.3,5.1c-4.5-0.3-9.1-0.1-13.3-1.7C267.8,252.7,267.8,251,267.8,250.1 M256,275.9c5.7,2.5,11.3,5.2,17.3,7.2
			c3.4-1.4,8.2-8.9,11-3.4c-4.4,4-10.5,8.1-16.7,6.7C262.8,284.1,259.7,279.5,256,275.9 M97.3,276.8c1.1,0.2,3.2,0.5,4.4,0.6
			c4.8,11.1,5,24,11.6,34.4c3.8,6.2,6.9,12.7,10.5,19c3.8,6.5,10.1,10.9,16,15.4c12.6,9.3,33.4,7.9,42.3-5.8
			c5.7-12.2-1.4-25.1-6.3-36.3c-8.4-13.2-30.3-3.2-29.7,11.2c-2.5-14.3,15.8-26.4,28-19.1c8.7,5.6,11.1,16.2,14.5,25.3
			c4,10.9-1.9,23.8-12.2,28.6c-8,5.1-17.8,3.1-26.7,3.1c-12.2-0.6-20.1-10.5-28-18.4c-7.7-9.4-12.7-20.6-18.7-31.2
			C99.8,295.1,98,286,97.3,276.8 M162.1,313.4c1.4,1.6,2.5,3.4,3.9,5.1c-3.4,4.4-8.9,4.2-13.8,3.5c-2-2.2-4.1-4.4-6.1-6.6
			c4.8,2.9,10.2,8.8,16.2,5.1C162.1,318.1,162.1,315.8,162.1,313.4L162.1,313.4z"/>
		<path class="st4" d="M161.3,174.4c5.5-0.6,9.3-6.3,14.6-7.1c5.9,3.9,11.4,9,18.9,8.6c-1.8-2.2-3.6-4.4-5.4-6.5
			c0.9-0.2,2.7-0.7,3.5-0.9c3.6-0.9,7.2-1.6,10.8-2.4c0.9,3.4,1.8,6.9,2.9,10.3c-1.7,1.7-3.4,3.5-5.2,5.2
			c3.7,5.1,7.1,10.5,10.8,15.6c7.7-2.1,12.6,5.3,16,11.1c-6.9-0.4-14.7-0.5-20.1-5.5c-3.3-3-6.5-6.1-10-9c-2.1,0.6-4.2,1.2-6.3,1.8
			c-1.7-4.1-2.7-9.5-7.9-10.5c0.4,2.1,0.9,4.1,1.3,6.2c-3.1,1.8-6.5,2.6-10,1.6c1.4-2.9,2.9-5.7,4.4-8.6c-4.3-0.4-6.8,3.3-9.2,6.2
			c-0.5-1.5-1-3-1.4-4.5c-1.6-0.2-3.1-0.6-4.7-0.7c-2.3,0.5-3.2,3.8-5.7,3.9c-4.1-0.4-8-2.1-12.2-2.3c-5,0.7-9.7,2.9-14.6,4.3
			c-1.6-1.3-3.3-2.6-4.9-3.9c2.2-1.6,7.1-2.8,3.8-6.1c4.5-2,8.2,0.8,11.3,3.8c-0.1-1.3-0.3-2.7-0.4-4c2.9-0.7,6-0.8,8.6-2.5
			c1.7-2.5,2.3-5.6,3.2-8.4C156.1,171.6,158.6,173.2,161.3,174.4L161.3,174.4z"/>
		<path class="st5" d="M201.5,181.6c1.7-1.7,3.4-3.5,5.2-5.2c1.7,5.1,3.9,10.3,8.2,13.7c7.2,5.5,14.7,11.5,23.7,13.6
			c8,1.5,16.8,0.6,23.7-4c6-5.4,8.8-13.3,15-18.5c5.8,2.9,12.3,4.2,17.9,7.5c5.8,3.7,8.6,10.3,12.1,16c-3.8,0.7-7.5,1.5-11.3,2.3
			c1.4,2.4,2.9,4.9,4.4,7.3c-1,1.5-2,3-2.9,4.6c-1.9-3-3.7-6-5.5-9c-4.1,1-8,2.6-11.5,4.8c0.4,1.9,0.8,3.8,1.2,5.7
			c-8.8-4.5-18.2,0-26.1,4.4c-2.4,1.3-4.9,2.8-7.3,4.1c-5-2.7-9.9-5.5-15.2-7.6c-2.1,3.4-4.6,6.7-7.1,9.9c-0.9-2.6-1.9-5.2-2.7-7.9
			c-0.9,0.1-2.7,0.4-3.6,0.5c-0.4,3.7-0.3,7.4,0.2,11.1c-2.4-0.3-4.9-0.6-7.3-0.9c1.1-5,2.4-9.9,3.4-15c-1.2,0.1-3.7,0.3-4.9,0.4
			c-4.1,6.3-4.3,13.9-3.5,21.2c-1.7-1.4-3.3-2.8-4.9-4.1c0.2-5.2,0.9-10.3,1.3-15.5c-5.4-2.3-7.6,3.9-8.6,7.9c-3-1-6-1.9-8.9-3
			c-6.7-2.1-11.1-8-17.6-10.6c-3.4-1.4-5.9-4.2-8.5-6.7c-0.3,1-0.9,3-1.1,4c2.6,4.4,2.6,10.1-2.5,12.8c-1.6-0.2-4.8-0.6-6.5-0.9
			c5.4,5.5,13.3,6.5,20.4,8.4c-1,0.7-3,2.1-4,2.8c-6.8-2.2-14.2-2.4-20.6-5.9c-0.2-2.6-0.5-5.3-0.7-7.9c-1.9-0.4-3.7-0.7-5.6-1.1
			c-2.2-0.4-4.3-0.8-6.5-1.3c-1.6-1.9-3.4-5.2-6.3-3.5c-2.3,2.1-4.2,4.6-6.4,6.9c-1.3-1.8-2.7-3.6-4-5.4c-9.8,1.2-9,13-15.3,18.3
			c-4,2.9-3.8,8.4-7.5,11.6c-0.5-4.5-0.8-8.9-0.3-13.4c2-7.9,5.5-15.3,7.5-23.3c0.2-0.6,0.5-1.9,0.7-2.6c4.1,0.2,8.4,0.8,12.4-0.3
			c3.5-1.7,2.1-6.5,3.4-9.6c0.6-5.4,5.3-8.5,9.6-10.9c1.6,1.3,3.3,2.6,4.9,3.9c4.9-1.5,9.6-3.6,14.6-4.3c4.2,0.2,8.1,1.9,12.2,2.3
			c2.5-0.1,3.3-3.4,5.7-3.9c1.6,0.1,3.1,0.5,4.7,0.7c0.5,1.5,1,3,1.4,4.5c2.5-2.9,4.9-6.6,9.2-6.2c-1.5,2.9-2.9,5.7-4.4,8.6
			c3.5,1,6.9,0.1,10-1.6c-0.5-2.1-0.9-4.1-1.3-6.2c5.2,0.9,6.2,6.3,7.9,10.5c2.1-0.6,4.2-1.2,6.3-1.8c3.4,2.9,6.7,6,10,9
			c5.4,5,13.2,5.1,20.1,5.5c-3.3-5.7-8.3-13.2-16-11.1C208.7,192.1,205.2,186.7,201.5,181.6L201.5,181.6z"/>
		<path class="st6" d="M296.1,207c3.8-0.8,7.5-1.5,11.3-2.3c1.2,2.6,2.2,5.2,3.2,7.8c-10.4,10.4-25.7,13.1-39.4,16.3
			c-5.7,1.7-11-1.3-15.7-4c7.9-4.3,17.3-8.9,26.1-4.4c-0.4-1.9-0.8-3.8-1.2-5.7c3.6-2.2,7.5-3.8,11.5-4.8c1.8,3,3.7,6,5.5,9
			c0.9-1.5,1.9-3.1,2.9-4.6C299,211.9,297.5,209.4,296.1,207L296.1,207z"/>
		<path class="st7" d="M166,318.5c-1.4-1.6-2.5-3.5-3.9-5.1c0,2.4,0.1,4.7,0.2,7.1c-6,3.7-11.4-2.2-16.2-5.1c2,2.2,4.1,4.3,6.1,6.6
			C157.1,322.7,162.6,322.9,166,318.5z"/>
		<path class="st7" d="M116.9,261.7c-3.7-4.3-10-2.3-15-3c-5.4,0.3-14-0.9-16.1,5.7c9.8,0.3,19.6,0.4,29.4,0.9
			C115.7,264.4,116.5,262.6,116.9,261.7z"/>
		<path class="st7" d="M227.3,248.1c5.4,8.8,16,7.7,24.9,7.5c-3.7-3.5-8.2-6.2-11.3-10.3c-1.8-1.7-2.5-5.1-5.3-5.4
			c-5.4,0.7-10.8,1.5-16.3,1.3H219c-1.4,0-4.3,0-5.7,0c-0.3,3.3-0.3,6.6-0.3,9.9c1.3,0.7,4,2.1,5.3,2.9
			C220.1,250.5,223.7,249.1,227.3,248.1z"/>
		<path class="st7" d="M82.3,258.6l-0.4-1.1c-0.2,0.4-0.5,1.2-0.6,1.6l-1.1,1.3c-0.2,0.2-0.6,0.7-0.7,0.9c-2.6,2.2-2.1,5.6-2.4,8.6
			c0.4,0.7,1.3,2.2,1.7,3c4.5,2.7,3.6-7.2,0.5-7.4c1.9-2.3,4-4.5,4.6-7.5L82.3,258.6z"/>
		<path class="st7" d="M97.3,276.8c0.7,9.1,2.5,18.3,5.6,26.9c6,10.5,11,21.7,18.7,31.2c8,7.9,15.9,17.8,28,18.4
			c8.9,0,18.8,2,26.7-3.1c10.3-4.8,16.2-17.7,12.2-28.6c-3.4-9-5.9-19.7-14.5-25.3c-12.2-7.3-30.5,4.8-28,19.1
			c-0.6-14.4,21.3-24.4,29.7-11.2c4.9,11.1,11.9,24.1,6.3,36.3c-9,13.7-29.7,15.1-42.3,5.8c-5.9-4.5-12.2-8.9-16-15.4
			c-3.6-6.2-6.8-12.8-10.5-19c-6.5-10.5-6.8-23.3-11.6-34.4C100.5,277.3,98.4,277,97.3,276.8z"/>
		<path class="st7" d="M88.2,269.7c0.3,0.7,1,2.1,1.4,2.8c10.7,1.1,21.4,0.3,32.1,0.3c-0.4-0.5-1.2-1.4-1.7-1.9
			C109.4,270.5,98.8,268,88.2,269.7z"/>
		<path class="st7" d="M251.6,238.3c-1.8-2.1-4.7-2.3-6.4,0.1c2.2,7.2,10,10.7,13.2,17.4c-1.4,3-4.9,6.2-2.5,9.6
			c0.9-6.5,6.3-9.8,11.9-11.9c-2.9-0.2-5.8-0.4-8.6-0.6C256.9,247.9,254.9,242.7,251.6,238.3z"/>
		<path class="st7" d="M69.8,256.7c-1.1,2.5-2.4,5.1-3.7,7.5c1.1,3.2,2.8,6.2,4.8,8.9c0.6-0.3,1.8-0.8,2.3-1c-4.3-5-0.9-11,1.9-15.8
			C73.3,256.6,71.5,256.7,69.8,256.7z"/>
		<path class="st7" d="M281.1,255.2c-3.5-3.4-8.4-4.5-13.2-5c0,0-0.1,0-0.1,0c0,0.9,0,2.5,0,3.3C272,255.1,276.6,254.9,281.1,255.2z
			"/>
		<path class="st7" d="M127.6,249.9c-4.1-6.5-5.5-14.1-3-21.5c-1.8,0.5-3.6,0.9-5.4,1.3c-4,7.1-9.4,14.4-8.2,23
			C116.6,252.7,122.4,252.6,127.6,249.9z"/>
		<path class="st7" d="M66.2,254.4c-3.4,0.6-6.8,0.7-10.2,0.2c-2,3.5-4.6,6.7-8.2,8.7c-3.6,2.2-2,7.3-1.4,10.7
			c6.4,1.2,13,0.8,19.5,1.1c-1.6-3.7-3.8-7.2-4.7-11.1C60.7,259.9,66,258.3,66.2,254.4z"/>
		<path class="st7" d="M153.1,247.3c0.4-2.3,1-4.7,1.5-7c-3.7-3.5-9.3-3.4-13.9-4.7c-1.3,6.3,0.1,12.6,3.8,17.8
			C147.2,251.3,150,249,153.1,247.3z"/>
		<path class="st7" d="M285.2,269.2c-9.8,1.7-19.8,0.5-29.6,1.8c-10.5-2.1-21.2-2.4-31.9-1.6c0.1,1,0.2,3,0.3,4
			c10.5-0.7,21.2,0.4,31.6-1.8c9.1,2,18.4,1.2,27.6,0.6c4.7-0.5,9,2.4,13.6,1.9C297.7,267.7,289.2,269.5,285.2,269.2z"/>
		<path class="st7" d="M262.6,261.1c-0.4,0.7-1.2,2.2-1.6,3c5.9,1.8,12.2,0.7,18.2,1.5c7.8,1.1,16.2,2,23.5-1.7
			c-2.5-1.6-4.8-4-7.8-4.6C284.1,258.7,273.3,260.1,262.6,261.1z"/>
		<path class="st7" d="M273.3,283.1c-5.9-2-11.6-4.6-17.3-7.2c3.7,3.6,6.8,8.2,11.5,10.5c6.2,1.4,12.3-2.7,16.7-6.7
			C281.5,274.2,276.7,281.7,273.3,283.1z"/>
		<path class="st7" d="M232.4,260.6c-2.4,0.6-7.6-0.2-7,3.9c6.8,0.4,13.7,0.4,20.5,0.2c2.8,0.1,4-1.3,3.7-4.2
			C243.9,260.5,238.1,260.2,232.4,260.6z"/>
		<path class="st7" d="M312.1,259c-0.3,2.4-0.5,4.8-0.7,7.2c-1,0.6-2.9,1.8-3.8,2.5c0,2.2-0.2,4.5-0.3,6.7c8.3-0.2,15.9-3.7,24-5.3
			c1.3-2.6,0.5-5.5,0.5-8.3C325.1,261.2,318.8,258.7,312.1,259z"/>
		<path class="st7" d="M165.3,241.9l-1.7,0.9c-1.4,5.2-4.6,8.7-8.9,11.5c3.2,0.6,6.4,0.8,9.7,1.1
			C167.7,251.5,165.6,246.3,165.3,241.9z"/>
		<path class="st7" d="M206.4,256.5c-1.9-4.7-3.7-9.9-7.8-13.1c-8.7,0.4-17.4,0.1-26.1,0.4c-1.1,4.1-2.5,8-3.3,12.2
			C181.5,257.1,194,256.6,206.4,256.5z"/>
		<path class="st7" d="M216.9,264.5c1.6-5.8,7.6-7.5,12.4-9.8c-3-7.1-10-1.1-13.2,2.6c-2.4-2.1-4.6-4.4-6.6-6.8
			c6.2,9.1,1.2,23,11.4,29.7c-1.5-4.9-3.3-9.8-4.1-14.9L216.9,264.5z"/>
		<path class="st7" d="M155.1,264.6c6-1.8,11.7,2.2,17.7,2.2c11.5,0.3,23,0.3,34.5-0.2c-0.1-1.3-0.3-4-0.4-5.3
			c-15.3,0-31.1-2.3-46,2c-4.2-0.1-8.1-2-12.2-2.7c-2.8-3.8-10.1-1.1-14.7-2.2c0.7,2.1,1.3,4.3,1.9,6.4c3.7,0.1,7.5,0.2,11.2,0.2
			C149.5,267.6,152.5,264.8,155.1,264.6z"/>
		<path class="st7" d="M141.5,270.7c0.9,1.2,1.8,2.5,2.7,3.7c3.6,0.1,7.3,0.2,10.9,0.4c17.3,0.1,34.5,0.4,51.8-0.2
			c0.3-0.6,0.9-1.7,1.3-2.2c-17.7-1.2-35.4-1.4-53.1-1.7C150.6,270.8,146.1,270.8,141.5,270.7z"/>
		<path class="st8" d="M220.5,183.6l-0.2,1.2c8.6,8.6,21.4,13.9,33.4,10.4c4.6-2.5,9.2-5.6,11.4-10.5c7.5-15.5,8.8-33.8,3.7-50.2
			c-4.6-3.3-9-7.1-11.7-12.1c-5.5-7.6-14.6-15.6-24.6-12c-10.2,1.4-17.4,10.4-20.2,19.8c-3.8,12-5.1,25.6,0.1,37.4
			C213.4,173.5,214.5,180.8,220.5,183.6z M239.7,154.1c2.2,6.5-1.4,15.5-9.4,15.6c-3.6-2.5-8.6-4.8-7.8-10
			C221.1,150.1,234.1,150.4,239.7,154.1z"/>
		<path class="st8" d="M307,191.9c4.6-4.9,10.2-8.7,15.1-13.2c8.4-12.3,15.5-28.6,9.1-43.4c-2.2-9.8-13.6-13.2-22.5-12.1
			c-11.7,2-24.6,6.2-30.8,17.3c0.2,10.8,1.9,21.6-0.3,32.3C289,175.8,301.4,180.8,307,191.9z M315.4,146.4c2.3-0.5,4.7-1.1,7-1.8
			c2.6,4,2.5,9.7,1.1,14.1c-4.6,4.5-11.2-0.1-13.1-5C312.1,151.2,313.8,148.8,315.4,146.4z"/>
		<path class="st0" d="M267.8,250.1C267.8,250.2,267.8,250.2,267.8,250.1C267.9,250.2,267.9,250.2,267.8,250.1
			C267.9,250.2,267.9,250.2,267.8,250.1z"/>
		<path class="st7" d="M307,191.9c4.6-4.9,10.2-8.7,15.1-13.2c8.4-12.3,15.5-28.6,9.1-43.4c-2.2-9.8-13.6-13.2-22.5-12.1
			c-11.7,2-24.6,6.2-30.8,17.3c0.2,10.8,1.9,21.6-0.3,32.3C289,175.8,301.4,180.8,307,191.9z M315.4,146.4c2.3-0.5,4.7-1.1,7-1.8
			c2.6,4,2.5,9.7,1.1,14.1c-4.6,4.5-11.2-0.1-13.1-5C312.1,151.2,313.8,148.8,315.4,146.4z"/>
		<path class="st7" d="M115.3,265.3c0.4-0.9,1.2-2.7,1.6-3.6c-3.7-4.3-10-2.3-15-3c-4.2,0.3-10.2-0.4-13.7,2.3v3.5
			C97.2,264.7,106.3,264.9,115.3,265.3z"/>
		<path class="st7" d="M124.6,228.4c-1.8,0.5-3.6,0.9-5.4,1.3c-4,7.1-9.4,14.4-8.2,23c5.7,0,11.5-0.1,16.6-2.8
			C123.5,243.4,122.1,235.8,124.6,228.4z"/>
		<path class="st7" d="M129,258.2c3-4.1,9-3.1,13.5-4.4c-3-3.9-7.1-7.4-8.3-12.3c-0.4-7.3,3.1-14.1,5.6-20.9
			c1.9,0.4,3.7,0.7,5.6,1.1c0.3,2.6,0.5,5.2,0.7,7.9c6.4,3.5,13.8,3.7,20.6,5.9c9.4,3.1,19.5,2,29-0.2c-0.2-2.2-0.3-4.4-0.3-6.6
			c1-4,3.2-10.2,8.6-7.9c-0.5,5.2-1.1,10.3-1.3,15.5c0.1,4.7,2.5,8.7,5.4,12.3c-0.1-2.7-0.3-5.5-0.5-8.2c-0.8-7.2-0.6-14.9,3.5-21.2
			c1.2-0.1,3.7-0.3,4.9-0.4c-1,5-2.3,10-3.4,15c2.4,0.3,4.9,0.6,7.3,0.9c9.8,1.1,19.7-1.4,28.4-6c2.5-1.3,4.9-2.7,7.3-4.1
			c4.7,2.8,10,5.7,15.7,4c13.7-3.2,29-5.9,39.4-16.3c-0.8-2.1-1.7-4.2-2.6-6.3c-0.2-0.5-0.4-1-0.6-1.5c-3.4-5.7-6.2-12.3-12.1-16
			c-5.6-3.3-12.1-4.7-17.9-7.5c-6.2,5.2-9.1,13.1-15,18.5c-6.9,4.6-15.7,5.5-23.7,4c-9.1-2.1-16.5-8.1-23.7-13.6
			c-4.4-3.4-6.6-8.6-8.2-13.7c-1-3.4-2-6.8-2.9-10.3c-1.1-4.4-0.8-10.3-5.8-12.4c-0.2-0.1-0.4-0.2-0.6-0.3
			c-11.3-5.2-23.7-9-36.3-8.3c-11,3.4-23.2,5.8-31.8,14.2c-13.3,11.7-20.7,28.4-26.6,44.8c-0.3,1-0.8,2.9-1.1,3.9
			c-0.2,0.7-0.5,1.9-0.7,2.6c-2,7.9-5.5,15.4-7.5,23.3c-0.5,4.5-0.2,9,0.3,13.4c0,0.8,0.1,2.5,0.2,3.4c2.7,0,5.4,0.1,8.1,0.2
			c5.6-9.7,9.2-21,18.5-28.1c2.2-2.2,4.1-4.7,6.4-6.9c2.9-1.6,4.8,1.7,6.3,3.5c-8.1,9-5.4,22.8,0.9,32.1c-4.2,3.1-8.4,6.4-11.7,10.6
			c2.3,7.5,9.9,11.1,16.8,13.6C134.5,270.8,127.2,266.2,129,258.2z"/>
		<path class="st7" d="M198.5,243.4c-8.7,0.4-17.4,0.1-26.1,0.4c-1.1,4.1-2.5,8-3.3,12.2c12.4,1.1,24.9,0.7,37.3,0.5
			C204.5,251.8,202.7,246.6,198.5,243.4z"/>
		<path class="st7" d="M166,318.5c-1.4-1.6-2.5-3.5-3.9-5.1c0,2.4,0.1,4.7,0.2,7.1c-6,3.7-11.4-2.2-16.2-5.1c2,2.2,4.1,4.3,6.1,6.6
			C157.1,322.7,162.6,322.9,166,318.5z"/>
		<path class="st7" d="M121.7,272.8c-0.4-0.5-1.2-1.4-1.7-1.9c-10.6-0.4-21.2-2.9-31.8-1.2c0.3,0.7,1,2.1,1.4,2.8
			C100.2,273.6,111,272.8,121.7,272.8z"/>
		<path class="st7" d="M97.3,276.8c0.7,9.1,2.5,18.3,5.6,26.9c6,10.5,11,21.7,18.7,31.2c8,7.9,15.9,17.8,28,18.4
			c8.9,0,18.8,2,26.7-3.1c10.3-4.8,16.2-17.7,12.2-28.6c-3.4-9-5.9-19.7-14.5-25.3c-12.2-7.3-30.5,4.8-28,19.1
			c-0.6-14.4,21.3-24.4,29.7-11.2c4.9,11.1,11.9,24.1,6.3,36.3c-9,13.7-29.7,15.1-42.3,5.8c-5.9-4.5-12.2-8.9-16-15.4
			c-3.6-6.2-6.8-12.8-10.5-19c-6.5-10.5-6.8-23.3-11.6-34.4C100.5,277.3,98.4,277,97.3,276.8z"/>
		<path class="st7" d="M232.4,260.6c-2.4,0.6-7.6-0.2-7,3.9c6.8,0.4,13.7,0.4,20.5,0.2c2.8,0.1,4-1.3,3.7-4.2
			C243.9,260.5,238.1,260.2,232.4,260.6z"/>
		<path class="st7" d="M240.9,245.3c-1.8-1.7-2.5-5.1-5.3-5.4c-5.4,0.7-10.8,1.5-16.3,1.3H219c-1.4,0-4.3,0-5.7,0
			c-0.3,3.3-0.3,6.6-0.3,9.9c1.3,0.7,4,2.1,5.3,2.9c1.9-3.5,5.5-4.9,9.1-5.9c5.4,8.8,16,7.7,24.9,7.5
			C248.5,252.1,244,249.3,240.9,245.3z"/>
		<path class="st7" d="M220.5,183.6l-0.2,1.2c8.6,8.6,21.4,13.9,33.4,10.4c4.6-2.5,9.2-5.6,11.4-10.5c7.5-15.5,8.8-33.8,3.7-50.2
			c-4.6-3.3-9-7.1-11.7-12.1c-5.5-7.6-14.6-15.6-24.6-12c-10.2,1.4-17.4,10.4-20.2,19.8c-3.8,12-5.1,25.6,0.1,37.4
			C213.4,173.5,214.5,180.8,220.5,183.6z M239.7,154.1c2.2,6.5-1.4,15.5-9.4,15.6c-3.6-2.5-8.6-4.8-7.8-10
			C221.1,150.1,234.1,150.4,239.7,154.1z"/>
		<path class="st7" d="M262.6,261.1c-0.4,0.7-1.2,2.2-1.6,3c5.9,1.8,12.2,0.7,18.2,1.5c7.8,1.1,16.2,2,23.5-1.7
			c-2.5-1.6-4.8-4-7.8-4.6C284.1,258.7,273.3,260.1,262.6,261.1z"/>
		<path class="st7" d="M285.2,269.2c-9.8,1.7-19.8,0.5-29.6,1.8c-10.5-2.1-21.2-2.4-31.9-1.6c0.1,1,0.2,3,0.3,4
			c10.5-0.7,21.2,0.4,31.6-1.8c9.1,2,18.4,1.2,27.6,0.6c4.7-0.5,9,2.4,13.6,1.9C297.7,267.7,289.2,269.5,285.2,269.2z"/>
		<path class="st7" d="M273.3,283.1c-5.9-2-11.6-4.6-17.3-7.2c3.7,3.6,6.8,8.2,11.5,10.5c6.2,1.4,12.3-2.7,16.7-6.7
			C281.5,274.2,276.7,281.7,273.3,283.1z"/>
		<path class="st7" d="M312.1,259c-0.3,2.4-0.5,4.8-0.7,7.2c-1,0.6-2.9,1.8-3.8,2.5c0,2.2-0.2,4.5-0.3,6.7c8.3-0.2,15.9-3.7,24-5.3
			c1.3-2.6,0.5-5.5,0.5-8.3C325.1,261.2,318.8,258.7,312.1,259z"/>
		<path class="st7" d="M251.6,238.3c-1.8-2.1-4.7-2.3-6.4,0.1c2.2,7.2,10,10.7,13.2,17.4c-1.4,3-4.9,6.2-2.5,9.6
			c0.9-6.5,6.3-9.8,11.9-11.9c-2.9-0.2-5.8-0.4-8.6-0.6C256.9,247.9,254.9,242.7,251.6,238.3z"/>
		<path class="st7" d="M155.1,264.6c6-1.8,11.7,2.2,17.7,2.2c11.5,0.3,23,0.3,34.5-0.2c-0.1-1.3-0.3-4-0.4-5.3
			c-15.3,0-31.1-2.3-46,2c-4.2-0.1-8.1-2-12.2-2.7c-2.8-3.8-10.1-1.1-14.7-2.2c0.7,2.1,1.3,4.3,1.9,6.4c3.7,0.1,7.5,0.2,11.2,0.2
			C149.5,267.6,152.5,264.8,155.1,264.6z"/>
		<path class="st7" d="M141.5,270.7c0.9,1.2,1.8,2.5,2.7,3.7c3.6,0.1,7.3,0.2,10.9,0.4c17.3,0.1,34.5,0.4,51.8-0.2
			c0.3-0.6,0.9-1.7,1.3-2.2c-17.7-1.2-35.4-1.4-53.1-1.7C150.6,270.8,146.1,270.8,141.5,270.7z"/>
		<path class="st7" d="M144.4,253.5c2.8-2.2,5.6-4.4,8.6-6.1c0.4-2.3,1-4.7,1.5-7c-3.7-3.5-9.3-3.4-13.9-4.7
			C139.4,241.9,140.8,248.2,144.4,253.5z"/>
		<path class="st7" d="M154.7,254.2c3.2,0.6,6.4,0.8,9.7,1.1c3.3-3.8,1.2-9,0.9-13.5l-1.7,0.9C162.2,247.9,159,251.4,154.7,254.2z"
			/>
		<path class="st7" d="M216.9,264.5c1.6-5.8,7.6-7.5,12.4-9.8c-3-7.1-10-1.1-13.2,2.6c-2.4-2.1-4.6-4.4-6.6-6.8
			c6.2,9.1,1.2,23,11.4,29.7c-1.5-4.9-3.3-9.8-4.1-14.9L216.9,264.5z"/>
		<path class="st9" d="M69.8,256.7c-1.1,2.5-2.4,5.1-3.7,7.5c1.1,3.2,2.8,6.2,4.8,8.9c0.6-0.3,1.8-0.8,2.3-1c-4.3-5-0.9-11,1.9-15.8
			C73.3,256.6,71.5,256.7,69.8,256.7z"/>
		<path class="st9" d="M82.3,258.6l-0.4-1.1c-0.2,0.4-0.5,1.2-0.6,1.6l-1.1,1.3c-0.2,0.2-0.6,0.7-0.7,0.9c-2.6,2.2-2.1,5.6-2.4,8.6
			c0.4,0.7,1.3,2.2,1.7,3c4.5,2.7,3.6-7.2,0.5-7.4c1.9-2.3,4-4.5,4.6-7.5L82.3,258.6z"/>
		<path class="st0" d="M230.3,169.7c8,0,11.5-9.1,9.4-15.6c-5.6-3.7-18.5-4-17.2,5.5C221.7,164.8,226.7,167.2,230.3,169.7z"/>
		<path class="st0" d="M323.5,158.6c1.4-4.4,1.5-10.1-1.1-14.1c-2.3,0.7-4.6,1.3-7,1.8c-1.7,2.4-3.3,4.8-5,7.2
			C312.3,158.5,318.8,163.1,323.5,158.6z"/>
		<path class="st0" d="M319.1,255.3c-10.3-1.8-20.7-0.1-31-0.3c-4.6-3.1-9.1-6.7-14.8-7.1c-1.8,0.8-3.6,1.5-5.4,2.2
			c4.7,0.5,9.6,1.6,13.2,5c-4.5-0.3-9.1-0.1-13.3-1.7c-5.7,2.1-11.1,5.3-11.9,11.9c-2.4-3.4,1.1-6.5,2.5-9.6
			c-3.2-6.7-10.9-10.2-13.2-17.4c1.7-2.4,4.6-2.2,6.4-0.1c3.4,4.4,5.3,9.6,7.6,14.6c2.9,0.2,5.8,0.4,8.6,0.6c0-0.8,0-2.5,0-3.3
			c-1.4,0.6-2.9,1.2-4.3,1.9c-2.5-5.5-4.6-11.1-6.4-16.8c3.4,0.8,6.7,2,10.1,2.7c15.6-2.4,32.3-5.5,44.5-16.3
			c2.6-2.6,7.2-4.9,6.4-9.2c-0.3-2.2-1-4.3-2-6.2c-1.7-3.6-4.1-6.9-5.6-10.7c3.5-1.3,7.1-2.6,10.5-4.2
			c12.2-11.9,18.3-28.9,19.6-45.7c-1.2-8.9-3.7-18.7-10.6-25c-12.6-6.3-27.4-4.3-40.2,0.3c-5.8,2.3-10,7-14.9,10.8
			c-3.9-0.9-6.3-5.4-8.9-8.4c-5-8.5-11.8-16.3-21.1-20c-7.8-0.3-16.7-2.4-23.4,2.6c-3.4,2.2-7.2,4.2-9.6,7.7
			c-5.4,10.1-8.5,21.3-9.4,32.6c-1.7-0.7-3.4-1.3-5.1-2c-11.9-4.4-24.3-7.4-37-7c-8.8,1.7-17.4,4.3-25.6,8
			c-16.7,8.7-27.3,25.7-33.5,43c-3.8,7.6-6.5,15.6-8,23.9c-1.4,7.5-4.3,14.8-4.7,22.5c0,5.2,0.4,10.4,0.3,15.6
			c-0.2,0.1-0.5,0.3-0.7,0.4c-5.4,3-11.8,2.9-17.8,3.9c-4.5-0.1-8.8-2.3-13.3-1c0,0-0.1,0-0.1,0c-4.8,2.3-9.9,3.6-14.7,5.8
			c-1.1,6.8-2.2,16.2,6,18.8c2.9,0,5.9,0,8.8,0c10.4,0,20.7,0.1,31.1,0.2c0.8,0,1.6,0,2.4,0c2.5,13,5,26.4,11.9,37.9
			c8.1,13.1,16.1,26.8,28.4,36.4c11.8,7.9,26.7,8.2,40.2,5.8c5.1-0.6,8.7-4.6,13.3-6.5c2.8-1.7,7-2.1,8-5.7
			c9.2-15,2.2-33.5-6.2-47.2c-5.3-9.4-16.9-11.3-26.7-10.9c-5.8,0.9-9.4,5.8-14.1,8.8c-5.1,3.1-10.1,9.7-6.2,15.7
			c3.3,6.3,7.4,14.7,15.8,14.2c5.3-0.6,12.3-1.8,14.6-7.3c1-6.7-6.9-9.9-12.2-11.1c0.3,3.3,0.6,6.5,0.9,9.8
			c-2.7-1.9-5.5-3.7-8.3-5.6c1.7-8.8,11.5-8.6,18.3-11.3c6.9,10.7,14.1,24.5,8.5,37.3c-6.5,8.1-18.2,7.1-27.2,5
			c-11.8-1.8-19.7-12.4-24.9-22.3c-7.9-13.7-17.5-28.4-15.8-44.9c5.5-0.1,11.1-0.5,16.5,0.1c5.3,1.2,10,5.8,15.7,3.6
			c12.2-3.3,24.9-1.3,37.4-1.5c9.8-0.5,19.7-1,29.5-0.4c3.5,1,5.5,5.3,9.6,5c4.7,1.6,7.4-3.3,10.9-5.3c7.9-0.3,15.9-0.5,23.7,0
			c3.7,6.5,9.3,13.5,17.3,14.5c9.7,0.4,18-6.5,23.2-14.1c6.9,1.6,14.3,3.7,21,0.3c14.5-6.1,30.5-6.1,45.4-10.4c0-1.1,0-3.2,0-4.3
			C347.4,256.5,332.6,258.7,319.1,255.3z M252.2,255.6c-8.9,0.2-19.5,1.3-24.9-7.5c-3.6,1-7.2,2.4-9.1,5.9c-1.3-0.7-4-2.2-5.3-2.9
			c0-3.3,0-6.6,0.3-9.9c1.4,0,4.3,0,5.7,0h0.3c5.5,0.3,10.9-0.6,16.3-1.3c2.8,0.3,3.5,3.7,5.3,5.4
			C244,249.3,248.5,252.1,252.2,255.6z M245.9,264.7c-6.9,0.2-13.7,0.2-20.5-0.2c-0.7-4.1,4.5-3.3,7-3.9c5.8-0.4,11.5-0.1,17.3-0.1
			C249.9,263.4,248.7,264.8,245.9,264.7z M277.9,140.6c6.2-11.1,19.1-15.3,30.8-17.3c8.9-1.1,20.2,2.3,22.5,12.1
			c6.4,14.7-0.7,31-9.1,43.4c-4.9,4.6-10.5,8.3-15.1,13.2c-5.6-11.2-18-16.2-29.4-19C279.7,162.2,278.1,151.3,277.9,140.6z
			 M212.3,130.2c2.8-9.4,10-18.4,20.2-19.8c10-3.6,19.2,4.4,24.6,12c2.8,5.1,7.1,8.8,11.7,12.1c5.1,16.4,3.8,34.7-3.7,50.2
			c-2.2,5-6.9,8-11.4,10.5c-12.1,3.5-24.8-1.8-33.4-10.4l0.2-1.2c-6.1-2.8-7.1-10.2-8.2-16C207.2,155.8,208.5,142.2,212.3,130.2z
			 M57.1,274.9c-3.6-0.1-7.1-0.3-10.7-0.9c-0.6-3.4-2.1-8.4,1.4-10.7c3.6-2,6.1-5.2,8.2-8.7c0.4,0.1,0.7,0.1,1.1,0.1
			c3,0.4,6.1,0.3,9.1-0.3c-0.3,3.9-5.6,5.6-4.9,9.6c0.9,3.9,3.1,7.4,4.7,11.1C63,275,60.1,274.9,57.1,274.9z M73.2,272.2
			c-0.6,0.3-1.8,0.8-2.3,1c-2-2.8-3.6-5.7-4.8-8.9c1.4-2.4,2.6-5,3.7-7.5c1.7-0.1,3.5-0.2,5.2-0.4C72.3,261.2,68.9,267.1,73.2,272.2
			z M78.6,272.8c-0.4-0.7-1.3-2.2-1.7-3c0.3-3-0.2-6.4,2.4-8.6c0.2-0.2,0.5-0.6,0.7-0.9l1.1-1.3c0.2-0.4,0.5-1.2,0.6-1.6l0.4,1.1
			l1.4-0.6c-0.5,3-2.7,5.2-4.6,7.5C82.3,265.6,83.1,275.5,78.6,272.8z M85.9,264.4c0.5-1.5,1.3-2.6,2.3-3.4c3.5-2.7,9.5-2,13.7-2.3
			c5,0.7,11.2-1.3,15,3c-0.4,0.9-1.2,2.7-1.6,3.6c-9-0.4-18.1-0.6-27.1-0.8C87.4,264.5,86.7,264.5,85.9,264.4z M127.6,249.9
			c-5.2,2.7-11,2.8-16.6,2.8c-1.2-8.6,4.2-15.9,8.2-23c1.8-0.4,3.6-0.8,5.4-1.3C122.1,235.8,123.5,243.4,127.6,249.9z M113.2,311.9
			c3.8,6.2,6.9,12.7,10.5,19c3.8,6.5,10.1,10.9,16,15.4c12.6,9.3,33.4,7.9,42.3-5.8c5.7-12.2-1.4-25.1-6.3-36.3
			c-8.4-13.2-30.3-3.2-29.7,11.2c4.8,2.9,10.2,8.8,16.2,5.1c-0.1-2.3-0.2-4.7-0.2-7.1c1.4,1.6,2.5,3.4,3.9,5.1
			c-3.4,4.4-8.9,4.2-13.8,3.5c-2-2.2-4.1-4.4-6.1-6.6c-2.5-14.3,15.8-26.4,28-19.1c8.7,5.6,11.1,16.2,14.5,25.3
			c4,10.9-1.9,23.8-12.2,28.6c-8,5.1-17.8,3.1-26.7,3.1c-12.2-0.6-20.1-10.5-28-18.4c-7.7-9.4-12.7-20.6-18.7-31.2
			c-3.1-8.6-4.9-17.8-5.6-26.9c1.1,0.2,3.2,0.5,4.4,0.6C106.4,288.6,106.7,301.4,113.2,311.9z M89.6,272.5c-0.4-0.7-1-2.1-1.4-2.8
			c10.6-1.7,21.2,0.8,31.8,1.2c0.4,0.5,1.2,1.4,1.7,1.9C111,272.8,100.2,273.6,89.6,272.5z M122.5,262.1c3.3-4.1,7.4-7.4,11.7-10.6
			c-6.2-9.3-9-23.1-0.9-32.1c-1.6-1.9-3.4-5.2-6.3-3.5c-2.3,2.1-4.2,4.6-6.4,6.9c-9.3,7.1-12.9,18.4-18.5,28.1
			c-2.7-0.1-5.4-0.2-8.1-0.2c0-0.8-0.1-2.5-0.2-3.4c-0.5-4.5-0.8-8.9-0.3-13.4c2-7.9,5.5-15.3,7.5-23.3c0.2-0.6,0.5-1.9,0.7-2.6
			c0.3-1,0.8-2.9,1.1-3.9c6-16.3,13.4-33,26.6-44.8c8.5-8.4,20.7-10.7,31.8-14.2c12.5-0.7,25,3.1,36.3,8.3c0.2,0.1,0.4,0.2,0.6,0.3
			c5,2,4.7,7.9,5.8,12.4c0.9,3.4,1.8,6.9,2.9,10.3c1.7,5.1,3.9,10.3,8.2,13.7c7.2,5.5,14.7,11.5,23.7,13.6c8,1.5,16.8,0.6,23.7-4
			c6-5.4,8.8-13.3,15-18.5c5.8,2.9,12.3,4.2,17.9,7.5c5.8,3.7,8.6,10.3,12.1,16c0.2,0.5,0.4,1,0.6,1.5c0.9,2.1,1.7,4.2,2.6,6.3
			c-10.4,10.4-25.7,13.1-39.4,16.3c-5.7,1.7-11-1.3-15.7-4c-2.4,1.3-4.9,2.8-7.3,4.1c-8.6,4.6-18.6,7.1-28.4,6
			c-2.4-0.3-4.9-0.6-7.3-0.9c1.1-5,2.4-9.9,3.4-15c-1.2,0.1-3.7,0.3-4.9,0.4c-4.1,6.3-4.3,13.9-3.5,21.2c0.2,2.7,0.4,5.5,0.5,8.2
			c-2.9-3.6-5.3-7.6-5.4-12.3c0.2-5.2,0.9-10.3,1.3-15.5c-5.4-2.3-7.6,3.9-8.6,7.9c0,2.2,0.2,4.4,0.3,6.6c-9.5,2.2-19.6,3.3-29,0.2
			c-6.8-2.2-14.2-2.4-20.6-5.9c-0.2-2.6-0.5-5.3-0.7-7.9c-1.9-0.4-3.7-0.7-5.6-1.1c-2.5,6.7-6,13.5-5.6,20.9
			c1.3,4.8,5.3,8.4,8.3,12.3c-4.4,1.3-10.5,0.3-13.5,4.4c-1.8,8,5.5,12.6,10.2,17.5C132.4,273.2,124.8,269.6,122.5,262.1z
			 M206.4,256.5c-12.4,0.2-24.9,0.6-37.3-0.5c0.8-4.1,2.2-8.1,3.3-12.2c8.7-0.3,17.4,0,26.1-0.4
			C202.7,246.6,204.5,251.8,206.4,256.5z M164.4,255.3c-3.3-0.3-6.5-0.5-9.7-1.1c4.3-2.9,7.5-6.4,8.9-11.5l1.7-0.9
			C165.6,246.3,167.7,251.5,164.4,255.3z M154.6,240.3c-0.6,2.3-1.1,4.6-1.5,7c-3.1,1.7-5.9,4-8.6,6.1c-3.6-5.3-5-11.5-3.8-17.8
			C145.3,237,150.9,236.8,154.6,240.3z M136,264.9c-0.6-2.1-1.2-4.3-1.9-6.4c4.6,1.1,11.9-1.6,14.7,2.2c4.1,0.7,8,2.6,12.2,2.7
			c14.9-4.4,30.7-2,46-2c0.1,1.3,0.3,4,0.4,5.3c-11.5,0.4-23,0.5-34.5,0.2c-6,0-11.7-4-17.7-2.2c-2.6,0.2-5.6,3-7.9,0.6
			C143.4,265.1,139.7,265,136,264.9z M206.9,274.6c-17.3,0.6-34.5,0.3-51.8,0.2c-3.6-0.1-7.3-0.3-10.9-0.4c-0.9-1.2-1.8-2.5-2.7-3.7
			c4.5,0,9,0.1,13.6,0c17.7,0.2,35.4,0.5,53.1,1.7C207.8,273,207.2,274.1,206.9,274.6z M209.5,250.4c2,2.5,4.2,4.7,6.6,6.8
			c3.2-3.7,10.3-9.6,13.2-2.6c-4.8,2.3-10.8,4-12.4,9.8l-0.1,0.7c0.7,5.1,2.6,10,4.1,14.9C210.6,273.4,215.7,259.6,209.5,250.4z
			 M267.6,286.4c-4.8-2.3-7.8-6.9-11.5-10.5c5.7,2.5,11.3,5.2,17.3,7.2c3.4-1.4,8.2-8.9,11-3.4C279.9,283.7,273.8,287.8,267.6,286.4
			z M296.8,274.1c-4.6,0.6-8.9-2.3-13.6-1.9c-9.2,0.6-18.5,1.4-27.6-0.6c-10.4,2.2-21.1,1.2-31.6,1.8c-0.1-1-0.2-3-0.3-4
			c10.7-0.9,21.4-0.5,31.9,1.6c9.8-1.3,19.8-0.1,29.6-1.8C289.2,269.5,297.7,267.7,296.8,274.1z M279.2,265.6
			c-6-0.8-12.3,0.3-18.2-1.5c0.4-0.7,1.2-2.2,1.6-3c10.7-0.9,21.4-2.4,32.3-1.8c3,0.6,5.3,3,7.8,4.6
			C295.4,267.5,287,266.6,279.2,265.6z M331.3,270.1c-8.1,1.5-15.7,5.1-24,5.3c0.2-2.2,0.3-4.5,0.3-6.7c0.9-0.6,2.8-1.9,3.8-2.5
			c0.2-2.4,0.5-4.8,0.7-7.2c6.7-0.3,13,2.2,19.6,2.9C331.8,264.5,332.6,267.5,331.3,270.1z"/>
		<path class="st10" d="M160.4,208.5c2.6,2.5,5.1,5.3,8.5,6.7c6.4,2.5,10.9,8.5,17.6,10.6c-0.6,1-1.2,2.1-1.8,3.1
			c-9.1-2.9-18.8-0.7-27.9-3.6c5.1-2.7,5.1-8.4,2.5-12.8C159.5,211.5,160.1,209.5,160.4,208.5L160.4,208.5z"/>
		<path class="st11" d="M101.2,235.7c6.3-5.3,5.5-17.1,15.3-18.3c1.4,1.8,2.7,3.6,4,5.4c-9.3,7.1-12.9,18.4-18.5,28.1
			c-2.7-0.1-5.4-0.2-8.1-0.2c0-0.8-0.1-2.5-0.2-3.4C97.4,244.1,97.2,238.6,101.2,235.7L101.2,235.7z"/>
		<path class="st12" d="M233,221.3c5.3,2.1,10.2,4.9,15.2,7.6c-8.6,4.6-18.6,7.1-28.4,6c-0.5-3.7-0.6-7.4-0.2-11.1
			c0.9-0.1,2.7-0.3,3.6-0.5c0.9,2.6,1.8,5.2,2.7,7.9C228.4,228,230.8,224.7,233,221.3L233,221.3z"/>
		<path class="st13" d="M150.3,224.4c1.6,0.2,4.8,0.6,6.5,0.9c9.1,2.9,18.8,0.7,27.9,3.6c0.6-1,1.2-2.1,1.8-3.1c3,1.1,5.9,2,8.9,3
			c0,2.2,0.2,4.4,0.3,6.6c-9.5,2.2-19.6,3.3-29,0.2c1-0.7,3-2.1,4-2.8C163.6,230.9,155.7,229.9,150.3,224.4L150.3,224.4z"/>
		<path class="st14" d="M56.1,254.6c3.4,0.5,6.8,0.5,10.2-0.2c-0.3,3.9-5.6,5.6-4.9,9.6c0.9,3.9,3.1,7.4,4.7,11.1
			c-6.5-0.3-13.1,0.1-19.5-1.1c-0.6-3.4-2.1-8.4,1.4-10.7C51.5,261.2,54,258.1,56.1,254.6L56.1,254.6z"/>
		<path class="st15" d="M312.1,259c6.7-0.3,13,2.2,19.6,2.9c0,2.7,0.8,5.7-0.5,8.3c-8.1,1.5-15.7,5.1-24,5.3
			c0.2-2.2,0.3-4.5,0.3-6.7c0.9-0.6,2.8-1.9,3.8-2.5C311.6,263.8,311.9,261.4,312.1,259L312.1,259z"/>
		<path class="st16" d="M134.1,258.5c4.6,1.1,11.9-1.6,14.7,2.2c-0.8-0.1-2.4-0.3-3.2-0.4c0.5,1.6,1,3.3,1.6,4.9
			c-3.7,0-7.5-0.2-11.2-0.2C135.4,262.8,134.7,260.6,134.1,258.5 M88.2,269.7c10.6-1.7,21.2,0.8,31.8,1.2c0.4,0.5,1.2,1.4,1.7,1.9
			c-10.7,0-21.5,0.8-32.1-0.3C89.2,271.8,88.5,270.4,88.2,269.7L88.2,269.7z"/>
		<path class="st17" d="M85.9,264.4c2-6.6,10.6-5.4,16.1-5.7c5,0.7,11.2-1.3,15,3c-0.4,0.9-1.2,2.7-1.6,3.6
			C105.5,264.8,95.7,264.7,85.9,264.4 M155.1,270.8c17.7,0.2,35.4,0.5,53.1,1.7c-0.3,0.6-1,1.7-1.3,2.2c-17.3,0.6-34.5,0.3-51.8,0.2
			C155.1,273.8,155.1,271.8,155.1,270.8L155.1,270.8z"/>
		<path class="st18" d="M145.6,260.3c0.8,0.1,2.4,0.3,3.2,0.4c4.1,0.7,8,2.6,12.2,2.7c14.9-4.4,30.7-2,46-2c0.1,1.3,0.3,4,0.4,5.3
			c-11.5,0.4-23,0.5-34.5,0.2c-6,0-11.7-4-17.7-2.2c-2.6,0.2-5.6,3-7.9,0.6C146.6,263.5,146.1,261.9,145.6,260.3 M141.5,270.7
			c4.5,0,9,0.1,13.6,0c0,1,0,3.1,0,4.1c-3.6-0.1-7.3-0.3-10.9-0.4C143.3,273.2,142.4,272,141.5,270.7L141.5,270.7z"/>
		<path class="st19" d="M225.4,264.5c-0.7-4.1,4.5-3.3,7-3.9c5.8-0.4,11.5-0.1,17.3-0.1c0.3,2.9-0.9,4.3-3.7,4.2
			C239.1,264.9,232.2,264.9,225.4,264.5 M262.6,261.1c10.7-0.9,21.4-2.4,32.3-1.8c3,0.6,5.3,3,7.8,4.6c-7.3,3.6-15.6,2.8-23.5,1.7
			c-6-0.8-12.3,0.3-18.2-1.5C261.4,263.3,262.2,261.8,262.6,261.1 M223.7,269.5c10.7-0.9,21.4-0.5,31.9,1.6
			c9.8-1.3,19.8-0.1,29.6-1.8c4.1,0.3,12.6-1.5,11.6,4.9c-4.6,0.6-8.9-2.3-13.6-1.9c-9.2,0.6-18.5,1.4-27.6-0.6
			c-10.4,2.2-21.1,1.2-31.6,1.8C223.9,272.5,223.8,270.5,223.7,269.5L223.7,269.5z"/>
		<path class="st20" d="M216.8,265.2c0-0.2,0.1-0.5,0.1-0.7L216.8,265.2L216.8,265.2z"/>
	</g>
</g>
</svg>
