<?xml version="1.0" encoding="UTF-8" standalone="no"?>
<!-- Created with Inkscape (http://www.inkscape.org/) -->

<svg
   xmlns:dc="http://purl.org/dc/elements/1.1/"
   xmlns:cc="http://creativecommons.org/ns#"
   xmlns:rdf="http://www.w3.org/1999/02/22-rdf-syntax-ns#"
   xmlns:svg="http://www.w3.org/2000/svg"
   xmlns="http://www.w3.org/2000/svg"
   xmlns:sodipodi="http://sodipodi.sourceforge.net/DTD/sodipodi-0.dtd"
   xmlns:inkscape="http://www.inkscape.org/namespaces/inkscape"
   width="32"
   height="32"
   viewBox="0 0 31.999999 31.999998"
   id="svg2"
   version="1.1"
   inkscape:version="0.91 r13725"
   sodipodi:docname="icon.svg"
   inkscape:export-filename="/home/sign/git/fontweak/src/me/guoyunhe/fontweak/img/icon-256.png"
   inkscape:export-xdpi="720"
   inkscape:export-ydpi="720">
  <defs
     id="defs4">
    <inkscape:perspective
       sodipodi:type="inkscape:persp3d"
       inkscape:vp_x="-43.134007 : -27.017719 : 1"
       inkscape:vp_y="4.4538875e-13 : 7273.75 : 0"
       inkscape:vp_z="271.71386 : -27.960907 : 1"
       inkscape:persp3d-origin="115.71827 : -66.754233 : 1"
       id="perspective4138" />
  </defs>
  <sodipodi:namedview
     id="base"
     pagecolor="#ffffff"
     bordercolor="#666666"
     borderopacity="1.0"
     inkscape:pageopacity="0.0"
     inkscape:pageshadow="2"
     inkscape:zoom="13.96875"
     inkscape:cx="3.5853818"
     inkscape:cy="21.661513"
     inkscape:document-units="px"
     inkscape:current-layer="layer1"
     showgrid="true"
     units="px"
     inkscape:window-width="1920"
     inkscape:window-height="1017"
     inkscape:window-x="0"
     inkscape:window-y="0"
     inkscape:window-maximized="1"
     inkscape:snap-global="false"
     inkscape:snap-object-midpoints="true"
     inkscape:snap-center="true">
    <inkscape:grid
       type="xygrid"
       id="grid4136" />
  </sodipodi:namedview>
  <metadata
     id="metadata7">
    <rdf:RDF>
      <cc:Work
         rdf:about="">
        <dc:format>image/svg+xml</dc:format>
        <dc:type
           rdf:resource="http://purl.org/dc/dcmitype/StillImage" />
        <dc:title />
      </cc:Work>
    </rdf:RDF>
  </metadata>
  <g
     inkscape:label="Layer 1"
     inkscape:groupmode="layer"
     id="layer1"
     transform="translate(0,-1020.3622)">
    <g
       style="font-style:normal;font-variant:normal;font-weight:normal;font-stretch:normal;font-size:40px;line-height:125%;font-family:'Nimbus Sans L';-inkscape-font-specification:'Nimbus Sans L, Normal';text-align:start;letter-spacing:0px;word-spacing:0px;writing-mode:lr-tb;text-anchor:start;fill:#000000;fill-opacity:1;stroke:none;stroke-width:1px;stroke-linecap:butt;stroke-linejoin:miter;stroke-opacity:1"
       id="text4154"
       transform="matrix(0.74999435,0,0,0.74999435,3.3972789,256.34926)" />
    <g
       id="g4167"
       transform="matrix(1.0766102,0,0,1.0770372,0.42285097,-79.877554)">
      <path
         transform="matrix(0.42277684,0,0,0.42143587,1.7106497,606.14944)"
         d="m 32.616009,1037.436 c 0,2.5085 -6.189264,13.2287 -8.361696,14.4829 -2.172433,1.2543 -14.5509606,1.2543 -16.723393,0 -2.1724324,-1.2542 -8.36169621,-11.9744 -8.36169621,-14.4829 0,-2.5085 6.18926381,-13.2286 8.36169621,-14.4828 2.1724324,-1.2543 14.55096,-1.2543 16.723393,0 2.172432,1.2542 8.361696,11.9743 8.361696,14.4828 z"
         inkscape:randomized="0"
         inkscape:rounded="0.15"
         inkscape:flatsided="true"
         sodipodi:arg2="0.52359878"
         sodipodi:arg1="0"
         sodipodi:r2="14.482884"
         sodipodi:r1="16.723392"
         sodipodi:cy="1037.436"
         sodipodi:cx="15.892616"
         sodipodi:sides="6"
         id="path4163"
         style="fill:#f4e3d7;stroke:#ff6600;stroke-width:2.20005774;stroke-miterlimit:4;stroke-dasharray:none;stroke-dashoffset:0"
         sodipodi:type="star" />
      <ellipse
         ry="2.4074154"
         rx="2.4146113"
         cy="1043.3622"
         cx="8.4296808"
         id="path4165"
         style="fill:#ff6600;stroke:none;stroke-width:1;stroke-miterlimit:4;stroke-dasharray:none;stroke-dashoffset:0" />
    </g>
    <g
       id="g4175"
       transform="matrix(1.0766102,0,0,1.0770372,13.426187,-87.377702)">
      <path
         sodipodi:type="star"
         style="fill:#f4e3d7;stroke:#0088aa;stroke-width:2.20005798;stroke-miterlimit:4;stroke-dasharray:none;stroke-dashoffset:0"
         id="path4177"
         sodipodi:sides="6"
         sodipodi:cx="15.892616"
         sodipodi:cy="1037.436"
         sodipodi:r1="16.723392"
         sodipodi:r2="14.482884"
         sodipodi:arg1="0"
         sodipodi:arg2="0.52359878"
         inkscape:flatsided="true"
         inkscape:rounded="0.15"
         inkscape:randomized="0"
         d="m 32.616009,1037.436 c 0,2.5085 -6.189264,13.2287 -8.361696,14.4829 -2.172433,1.2543 -14.5509606,1.2543 -16.723393,0 -2.1724324,-1.2542 -8.36169621,-11.9744 -8.36169621,-14.4829 0,-2.5085 6.18926381,-13.2286 8.36169621,-14.4828 2.1724324,-1.2543 14.55096,-1.2543 16.723393,0 2.172432,1.2542 8.361696,11.9743 8.361696,14.4828 z"
         transform="matrix(0.42277684,0,0,0.42143587,1.7106497,606.14944)" />
      <ellipse
         style="fill:#0088aa;stroke:none;stroke-width:1;stroke-miterlimit:4;stroke-dasharray:none;stroke-dashoffset:0"
         id="ellipse4179"
         cx="8.4296808"
         cy="1043.3622"
         rx="2.4146113"
         ry="2.4074154" />
    </g>
    <g
       transform="matrix(1.0766102,0,0,1.0770372,0.42285107,-94.87785)"
       id="g4181">
      <path
         sodipodi:type="star"
         style="fill:#f4e3d7;stroke:#2ca02c;stroke-width:2.20005727;stroke-miterlimit:4;stroke-dasharray:none;stroke-dashoffset:0"
         id="path4183"
         sodipodi:sides="6"
         sodipodi:cx="15.892616"
         sodipodi:cy="1037.436"
         sodipodi:r1="16.723392"
         sodipodi:r2="14.482884"
         sodipodi:arg1="0"
         sodipodi:arg2="0.52359878"
         inkscape:flatsided="true"
         inkscape:rounded="0.15"
         inkscape:randomized="0"
         d="m 32.616009,1037.436 c 0,2.5085 -6.189264,13.2287 -8.361696,14.4829 -2.172433,1.2543 -14.5509606,1.2543 -16.723393,0 -2.1724324,-1.2542 -8.36169621,-11.9744 -8.36169621,-14.4829 0,-2.5085 6.18926381,-13.2286 8.36169621,-14.4828 2.1724324,-1.2543 14.55096,-1.2543 16.723393,0 2.172432,1.2542 8.361696,11.9743 8.361696,14.4828 z"
         transform="matrix(0.42277684,0,0,0.42143587,1.7106497,606.14944)" />
      <ellipse
         style="fill:#2ca02c;stroke:none;stroke-width:1;stroke-miterlimit:4;stroke-dasharray:none;stroke-dashoffset:0"
         id="ellipse4185"
         cx="8.4296808"
         cy="1043.3622"
         rx="2.4146113"
         ry="2.4074154" />
    </g>
  </g>
</svg>
